<?xml version="1.0" encoding="UTF-8"?>
<svg version="1.1" xmlns="http://www.w3.org/2000/svg" width="2014" height="615">
<path d="M0 0 C2.59329741 -0.00067576 5.18659477 -0.00164804 7.77989197 -0.00289917 C13.20360987 -0.00436728 18.62730983 -0.00235145 24.05102539 0.00244141 C29.5500579 0.00724622 35.04906324 0.00728713 40.5480957 0.00244141 C185.4535991 -0.12188844 185.4535991 -0.12188844 213.19921875 26.796875 C231.76757281 47.66882186 229.27734375 77.27593964 229.27734375 103.1328125 C198.91734375 103.1328125 168.55734375 103.1328125 137.27734375 103.1328125 C136.61734375 98.1828125 135.95734375 93.2328125 135.27734375 88.1328125 C133.60780094 83.60119631 132.59455498 81.09662559 128.71484375 78.2578125 C113.3559284 73.23125838 96.27230567 73.69104573 80.27734375 73.1328125 C79.62014343 73.10983093 78.96294312 73.08684937 78.28582764 73.06317139 C58.2427987 72.37162517 38.1935195 72.0009977 18.13882446 71.90164185 C15.96787037 71.88925085 13.79693806 71.87186936 11.62606812 71.84909058 C-13.75939666 71.41570117 -13.75939666 71.41570117 -36.72265625 81.1328125 C-41.07462062 86.08504782 -43.04764775 91.24165802 -42.9375 97.875 C-42.43097997 103.19806499 -41.10897263 107.71001411 -37.34765625 111.5703125 C-32.33840959 114.55200694 -27.6586363 115.58796331 -21.90429688 116.19506836 C-21.15407509 116.27811942 -20.4038533 116.36117048 -19.63089752 116.44673824 C-12.04075575 117.25733515 -4.43906522 117.75180746 3.18359375 118.13671875 C3.94201065 118.17664003 4.70042755 118.21656132 5.48182678 118.25769234 C21.06234133 119.07231704 36.65300329 119.5922274 52.24609375 120.09765625 C53.47881012 120.13766376 54.71152649 120.17767128 55.9815979 120.21889114 C67.50793749 120.59145849 79.03448014 120.95721963 90.56152344 121.30737305 C200.33241081 124.6577637 200.33241081 124.6577637 224.1796875 149.640625 C239.60900088 167.97191352 240.64334876 191.96686993 240.59301758 214.8190918 C240.58986693 217.79839041 240.61337258 220.77668324 240.63867188 223.75585938 C240.72290485 249.10605366 237.98333885 276.58416023 219.7578125 295.84765625 C215.63999887 299.64123259 211.1810606 302.46117965 206.27734375 305.1328125 C205.05144531 305.80763672 205.05144531 305.80763672 203.80078125 306.49609375 C198.06954193 309.36171341 192.12906186 311.15892065 185.96484375 312.8203125 C185.21912109 313.02285645 184.47339844 313.22540039 183.70507812 313.43408203 C171.90098711 316.45051535 159.73224054 317.55767192 147.59765625 318.2421875 C146.86620518 318.28405937 146.1347541 318.32593124 145.38113785 318.36907196 C118.93887225 319.81562702 92.39910738 319.43229999 65.9255898 319.38995123 C60.65560814 319.3823991 55.38570158 319.38513643 50.11572266 319.39355469 C-15.17404639 319.49518298 -15.17404639 319.49518298 -41.72265625 317.1328125 C-43.57028816 316.96843437 -43.57028816 316.96843437 -45.45524597 316.80073547 C-104.36277831 311.42156577 -104.36277831 311.42156577 -121.72265625 292.1328125 C-122.19058594 291.65714844 -122.65851563 291.18148438 -123.140625 290.69140625 C-141.96369127 270.61024301 -138.72265625 236.65933526 -138.72265625 212.1328125 C-108.36265625 212.1328125 -78.00265625 212.1328125 -46.72265625 212.1328125 C-45.73265625 218.0728125 -44.74265625 224.0128125 -43.72265625 230.1328125 C-39.01281591 239.55941993 -39.01281591 239.55941993 -30.28515625 243.8203125 C-15.84783413 247.59263151 0.05525521 246.2962539 14.8515625 246.30078125 C17.34519977 246.30400331 19.83883686 246.30736806 22.33247375 246.31086731 C27.54953447 246.31683264 32.7665787 246.31871008 37.98364258 246.31811523 C44.59005739 246.3180142 51.19636332 246.3316176 57.80275249 246.34888744 C62.95512859 246.36014448 68.10747959 246.36203024 73.25986671 246.36150551 C75.69091985 246.362667 78.12197404 246.36698243 80.55301476 246.37483788 C93.35150337 246.41229882 106.08634644 246.17298622 118.85864258 245.3059082 C120.5067381 245.20211113 120.5067381 245.20211113 122.18812847 245.09621716 C133.57445476 244.56108187 133.57445476 244.56108187 143.01594257 239.18622303 C148.16638787 231.4408747 147.80818565 223.13782146 147.27734375 214.1328125 C146.19526974 208.9780505 143.3980679 205.35772705 139.27734375 202.1328125 C130.10557794 197.7739535 119.62346853 198.01135301 109.67578125 197.7734375 C107.46287556 197.71221198 105.24998582 197.65040824 103.03710938 197.58813477 C101.84384033 197.55535431 100.65057129 197.52257385 99.42114258 197.48880005 C68.72123714 196.625446 38.03641162 195.3552981 7.3538208 194.02258301 C2.32759941 193.80443172 -2.69879041 193.59114557 -7.72540283 193.38220215 C-13.76069682 193.13094036 -19.79544796 192.86909515 -25.82995987 192.59972191 C-28.06746848 192.50136987 -30.3051262 192.406339 -32.54293442 192.31505775 C-97.17895463 189.66223794 -97.17895463 189.66223794 -117.76953125 169.50390625 C-138.40712072 144.44987264 -137.96749226 107.32265413 -135.21875 76.62109375 C-132.81685586 54.98943422 -126.41920992 34.09034355 -108.97265625 19.8828125 C-78.57835574 -1.20952859 -35.3561972 -0.03279351 0 0 Z " fill="#0F6CB6" transform="translate(611.72265625,200.8671875)"/>
<path d="M0 0 C2.59329741 -0.00067576 5.18659477 -0.00164804 7.77989197 -0.00289917 C13.20360987 -0.00436728 18.62730983 -0.00235145 24.05102539 0.00244141 C29.5500579 0.00724622 35.04906324 0.00728713 40.5480957 0.00244141 C184.1574389 -0.12077632 184.1574389 -0.12077632 213.09375 26.82421875 C231.81882921 46.19638494 229.27734375 79.30339547 229.27734375 103.1328125 C198.91734375 103.1328125 168.55734375 103.1328125 137.27734375 103.1328125 C136.61734375 98.1828125 135.95734375 93.2328125 135.27734375 88.1328125 C132.53509353 82.30570216 132.53509353 82.30570216 128.27734375 78.1328125 C125.17573821 77.03728151 125.17573821 77.03728151 121.71484375 76.4453125 C120.57917969 76.21457031 119.44351562 75.98382813 118.2734375 75.74609375 C105.77293812 73.64372227 92.91597163 73.57390777 80.27734375 73.1328125 C79.62014343 73.10983093 78.96294312 73.08684937 78.28582764 73.06317139 C58.2427987 72.37162517 38.1935195 72.0009977 18.13882446 71.90164185 C15.96787037 71.88925085 13.79693806 71.87186936 11.62606812 71.84909058 C-13.71022463 71.50260076 -13.71022463 71.50260076 -36.72265625 81.1328125 C-41.16098484 85.55201036 -42.83991321 90.23238504 -42.97265625 96.3828125 C-42.86815295 102.73661332 -41.40667854 107.24342164 -37.16015625 112.0078125 C-30.405425 116.9732242 -19.98574194 116.61185525 -11.9453125 117.1640625 C-10.21088646 117.28726868 -10.21088646 117.28726868 -8.44142151 117.41296387 C7.11885441 118.46156027 22.70421301 118.98570444 38.28824615 119.54101562 C41.75315914 119.66567015 45.21788783 119.79507877 48.682621 119.92462158 C65.55771177 120.55552892 82.43338608 121.15148486 99.3125 121.6640625 C200.48583973 124.75785225 200.48583973 124.75785225 223.953125 149.3671875 C239.40422242 167.75269502 240.82590866 192.29287145 240.66845703 215.28686523 C240.65236818 218.06609276 240.66842597 220.84386261 240.6875 223.62304688 C240.71697759 248.31575803 238.25733638 276.26579021 220.44921875 295.078125 C201.08637539 313.39621062 172.48364203 316.85816082 147.0703125 318.2421875 C146.31466696 318.28405937 145.55902142 318.32593124 144.78047752 318.36907196 C118.32435295 319.77362366 91.78436181 319.43272824 65.29894531 319.38995123 C60.07711901 319.38239595 54.85536847 319.3851397 49.63354492 319.39355469 C-88.01092724 319.60969525 -88.01092724 319.60969525 -116.72265625 297.1328125 C-117.77453125 296.3696875 -118.82640625 295.6065625 -119.91015625 294.8203125 C-134.77607482 280.61510142 -137.09878374 261.61928264 -138.72265625 242.1328125 C-138.72265625 232.2328125 -138.72265625 222.3328125 -138.72265625 212.1328125 C-108.36265625 212.1328125 -78.00265625 212.1328125 -46.72265625 212.1328125 C-45.73265625 218.0728125 -44.74265625 224.0128125 -43.72265625 230.1328125 C-39.01281591 239.55941993 -39.01281591 239.55941993 -30.28515625 243.8203125 C-15.84783413 247.59263151 0.05525521 246.2962539 14.8515625 246.30078125 C17.34519977 246.30400331 19.83883686 246.30736806 22.33247375 246.31086731 C27.54953447 246.31683264 32.7665787 246.31871008 37.98364258 246.31811523 C44.59005739 246.3180142 51.19636332 246.3316176 57.80275249 246.34888744 C62.95512859 246.36014448 68.10747959 246.36203024 73.25986671 246.36150551 C75.69091985 246.362667 78.12197404 246.36698243 80.55301476 246.37483788 C93.37218621 246.41235936 106.12800801 246.17107935 118.92114258 245.3059082 C120.58180645 245.20211113 120.58180645 245.20211113 122.2760191 245.09621716 C129.49099168 244.54863971 136.55971466 243.67645345 142.65234375 239.5078125 C147.88692822 231.85726597 148.18455792 223.15281544 147.27734375 214.1328125 C146.12191103 209.06780239 144.14994151 205.35009208 139.96484375 202.1953125 C128.17445061 196.21304284 111.89975553 197.72766418 99.04421997 197.4133606 C92.32947182 197.2446967 85.61586787 197.03922294 78.90234375 196.828125 C78.14739687 196.80445169 77.39244999 196.78077839 76.61462593 196.75638771 C53.54085954 196.02475213 30.47696713 195.02901378 7.41378784 194.02359009 C2.39227201 193.80486905 -2.62941553 193.59113207 -7.65133667 193.38192749 C-13.67978675 193.13048547 -19.70770978 192.86874398 -25.73539734 192.59965897 C-27.96915859 192.50142395 -30.20306484 192.40641796 -32.43711853 192.31507492 C-43.70303123 191.85159154 -54.87345505 191.14980645 -66.06274414 189.72241211 C-66.97200118 189.60760026 -67.88125822 189.49278841 -68.8180685 189.37449741 C-88.45897143 186.68346103 -108.64936902 180.69473541 -121.6171875 164.8125 C-139.77059949 138.94685416 -139.00500826 97.9388616 -134.13549805 67.98706055 C-130.86390092 50.30359293 -125.18810715 31.60443234 -110.09765625 20.4453125 C-78.13429571 -0.29026071 -36.73004973 -0.03406778 0 0 Z " fill="#0F6CB6" transform="translate(1420.72265625,200.8671875)"/>
<path d="M0 0 C113.52 0 227.04 0 344 0 C344 24.42 344 48.84 344 74 C261.5 74 179 74 94 74 C94 88.19 94 102.38 94 117 C172.21 117 250.42 117 331 117 C331 139.77 331 162.54 331 186 C252.79 186 174.58 186 94 186 C94 202.17 94 218.34 94 235 C176.83 235 259.66 235 345 235 C345 259.75 345 284.5 345 310 C231.15 310 117.3 310 0 310 C0 207.7 0 105.4 0 0 Z " fill="#0F6CB6" transform="translate(1669,206)"/>
<path d="M0 0 C1.62466013 0.00138269 1.62466013 0.00138269 3.28214169 0.00279331 C5.13952465 0.00073132 5.13952465 0.00073132 7.0344305 -0.00137234 C8.41924214 0.00216727 9.80405354 0.00580209 11.18886471 0.00952244 C12.63726964 0.0098043 14.08567471 0.00964659 15.53407955 0.00907993 C19.47812183 0.00879193 23.42213397 0.01468903 27.36616921 0.02165389 C31.48349338 0.02788705 35.60081817 0.0284912 39.71814632 0.0296793 C47.52025732 0.03279273 55.32235437 0.04100627 63.12445921 0.05102879 C72.00460173 0.06218957 80.88474491 0.06770029 89.7648927 0.07272422 C108.03700261 0.08318887 126.30909953 0.10078853 144.58119869 0.12304783 C146.15478315 2.93974164 147.7256278 5.75795482 149.29604244 8.57641697 C149.73476681 9.36164989 150.17349117 10.14688282 150.62551022 10.95591068 C154.73537867 18.33748192 158.62195091 25.82428636 162.45610714 33.35186863 C164.40147472 37.17084043 166.35732267 40.98444587 168.31166744 44.79882908 C168.68937786 45.53667637 169.06708828 46.27452366 169.45624447 47.03472996 C172.60214572 53.17621161 175.79868023 59.28963687 179.02651119 65.38842869 C182.4097494 71.7835918 185.74765453 78.20185702 189.08119869 84.62304783 C192.89463582 91.966995 196.71931223 99.30445644 200.58119869 106.62304783 C204.44308553 113.94163993 208.26766065 121.27915253 212.08119869 128.62304783 C215.9163256 136.00818695 219.76179044 143.38738285 223.64369869 150.74804783 C229.8437391 162.50422992 235.97989158 174.29367018 242.12221432 186.08007908 C247.23764011 195.89493669 252.35564463 205.70814328 257.51869869 215.49804783 C261.96859124 223.93569398 266.3684434 232.39897753 270.7645483 240.86474705 C274.01832941 247.12735471 277.2877741 253.38120479 280.58119869 259.62304783 C284.47553215 267.00882504 288.34792373 274.4058677 292.20619869 281.81054783 C292.72053463 282.79539158 293.23487057 283.78023533 293.76479244 284.79492283 C296.82598967 290.67707143 299.82552642 296.58736968 302.78578854 302.52075291 C303.15258221 303.25516857 303.51937588 303.98958424 303.89728451 304.74625492 C304.79226133 306.53835009 305.68677787 308.33067511 306.58119869 310.12304783 C292.60378874 310.35685159 278.6266827 310.53242139 264.64771748 310.64116955 C258.1565931 310.69336396 251.66678198 310.76415637 245.17641354 310.87744236 C238.9128508 310.98608558 232.65055109 311.04588706 226.38611889 311.07182026 C223.99612314 311.09030063 221.60619675 311.1263907 219.2167387 311.1803484 C215.86844421 311.25295208 212.5253683 311.2629404 209.17641354 311.25830173 C207.69395138 311.31223087 207.69395138 311.31223087 206.18154049 311.36724949 C203.32391594 311.32441007 201.23980029 311.18197946 198.58119869 310.12304783 C195.8805056 307.08532825 194.25120478 303.80428317 192.58119869 300.12304783 C191.74840254 298.52798071 190.9103192 296.93564857 190.06410885 295.3476572 C189.24524552 293.72283772 188.4307355 292.09581806 187.62026119 290.46679783 C187.18482998 289.59784885 186.74939877 288.72889988 186.30077267 287.83361912 C185.39309824 286.01961821 184.48740134 284.20462652 183.5836401 282.38867283 C182.19430451 279.5991667 180.79635053 276.81409532 179.39760494 274.02929783 C178.51297642 272.25872118 177.62884338 270.48789687 176.74526119 268.71679783 C176.32660793 267.88353977 175.90795467 267.05028172 175.47661495 266.19177341 C175.09556606 265.42337132 174.71451717 264.65496922 174.32192135 263.8632822 C173.98472073 263.18728977 173.6475201 262.51129734 173.30010128 261.81482029 C172.58119869 260.12304783 172.58119869 260.12304783 172.58119869 258.12304783 C104.93119869 258.12304783 37.28119869 258.12304783 -32.41880131 258.12304783 C-33.07880131 260.10304783 -33.73880131 262.08304783 -34.41880131 264.12304783 C-42.00880131 279.30304783 -49.59880131 294.48304783 -57.41880131 310.12304783 C-93.38880131 310.12304783 -129.35880131 310.12304783 -166.41880131 310.12304783 C-165.07932625 306.10462267 -163.93634739 302.92864897 -162.02036381 299.27929783 C-161.3109766 297.92239841 -161.3109766 297.92239841 -160.58725834 296.53808689 C-159.82324711 295.09514256 -159.82324711 295.09514256 -159.04380131 293.62304783 C-158.2430518 292.09889256 -158.2430518 292.09889256 -157.42612553 290.54394627 C-153.38425354 282.87779517 -149.23720348 275.27175622 -145.06186771 267.67773533 C-140.44212979 259.24182203 -136.03490986 250.70099809 -131.63022709 242.15136814 C-127.5195574 234.1925323 -123.27942119 226.31652616 -118.95786381 218.47070408 C-114.99489308 211.24719395 -111.1920839 203.94717059 -107.41880131 196.62304783 C-102.71965106 187.50177147 -97.90806818 178.45783983 -92.95786381 169.47070408 C-88.99489308 162.24719395 -85.1920839 154.94717059 -81.41880131 147.62304783 C-76.71965106 138.50177147 -71.90806818 129.45783983 -66.95786381 120.47070408 C-62.36778873 112.10413866 -57.99767983 103.62896141 -53.62754154 95.14599705 C-50.00274507 88.12772105 -46.29464311 81.16551153 -42.48130131 74.24804783 C-37.81436313 65.77981323 -33.3379906 57.22211307 -28.91880131 48.62304783 C-23.04503241 37.19553715 -17.00963516 25.86756263 -10.79331303 14.62207127 C-8.72018164 10.85287537 -6.67946326 7.06610364 -4.63779545 3.27978611 C-2.86647035 0.14582138 -2.86647035 0.14582138 0 0 Z M60.58119869 73.12304783 C59.97557598 74.33762417 59.97557598 74.33762417 59.35771847 75.5767374 C55.50728752 83.29783769 51.65481179 91.01791375 47.80017185 98.73691368 C45.819683 102.7030569 43.83992127 106.6695592 41.86196041 110.63696384 C26.39760714 141.65313963 26.39760714 141.65313963 18.6695776 156.17553806 C15.32017532 162.47651535 12.13882934 168.86170951 8.95619869 175.24804783 C8.32742213 176.50201911 7.69851579 177.75592534 7.06947994 179.00976658 C6.4829565 180.18410252 5.89643307 181.35843845 5.29213619 182.56836033 C4.76926022 183.61524021 4.24638424 184.66212009 3.70766354 185.74072361 C2.50995453 187.83451625 2.50995453 187.83451625 2.58119869 189.12304783 C47.13119869 189.12304783 91.68119869 189.12304783 137.58119869 189.12304783 C136.33791487 185.39319636 135.29785163 182.3062226 133.58510494 178.88794041 C133.19709713 178.10884815 132.80908932 177.3297559 132.40932369 176.52705479 C131.78283932 175.28486431 131.78283932 175.28486431 131.14369869 174.01757908 C130.70412838 173.13889668 130.26455807 172.26021427 129.81166744 171.35490513 C128.8788295 169.49224523 127.94405146 167.63055585 127.00746822 165.76977634 C125.60959199 162.99196991 124.21789528 160.21114182 122.82729244 157.42968845 C118.52898917 148.85059144 114.1770016 140.30621245 109.67885494 131.83007908 C103.57815032 120.32717143 97.81175502 108.65799098 92.01869869 96.99804783 C89.87384546 92.68180319 87.72635196 88.36688688 85.57729244 84.05273533 C85.08885357 83.06755924 84.6004147 82.08238316 84.09717464 81.06735325 C83.42495625 79.71796162 83.42495625 79.71796162 82.73915768 78.34130955 C82.34518291 77.54812321 81.95120815 76.75493687 81.54529476 75.93771458 C80.7127818 74.15706696 80.7127818 74.15706696 79.58119869 73.12304783 C78.16549746 73.03653172 76.74560369 73.01599879 75.32729244 73.02539158 C74.04628658 73.03022556 74.04628658 73.03022556 72.73940182 73.0351572 C71.84156979 73.04353611 70.94373775 73.05191502 70.01869869 73.06054783 C69.11699947 73.06505955 68.21530025 73.06957127 67.28627682 73.0742197 C65.05118556 73.08604558 62.81622433 73.10252563 60.58119869 73.12304783 Z " fill="#0F6CB6" transform="translate(997.4188013076782,205.87695217132568)"/>
<path d="M0 0 C1.01894269 3.18977322 0.94064996 5.37066066 0.2578125 8.6328125 C0.07863281 9.52226562 -0.10054688 10.41171875 -0.28515625 11.328125 C-0.47980469 12.25109375 -0.67445312 13.1740625 -0.875 14.125 C-6.95025801 43.37003512 -4.88758189 73.54409291 4 102 C4.2367041 102.75812988 4.4734082 103.51625977 4.71728516 104.29736328 C10.94146423 123.65188977 20.43627025 142.01170846 33 158 C33.66773437 158.88816406 34.33546875 159.77632812 35.0234375 160.69140625 C43.34963346 171.39423669 53.21729491 182.42849323 64.62329102 189.83227539 C69.9970089 193.34822002 72.54367861 196.11300312 73.90014648 202.29321289 C74.17524088 203.84882363 74.43777214 205.40670796 74.68774414 206.96655273 C77.27913182 223.07459182 87.1784093 236.97408668 99.890625 246.89453125 C114.70210645 256.92391379 132.17722379 261.29923406 149.9453125 258.34375 C163.9442726 255.40496601 176.81845482 249.23145471 187 239 C188.050476 237.25527377 189.09219604 235.50524512 190.125 233.75 C196.02817644 225.84243239 207.89295608 225.99071007 216.96240234 224.52685547 C242.80670616 220.04429578 267.33454365 206.73991097 288 191 C288.92039062 190.30519531 289.84078125 189.61039063 290.7890625 188.89453125 C310.91163413 173.07545945 326.04737038 153.49936183 338 131 C338.33725098 130.3694873 338.67450195 129.73897461 339.02197266 129.08935547 C345.19789133 117.32769729 348.99685138 104.62097269 353 92 C353.66 92.33 354.32 92.66 355 93 C359.12056625 111.3944232 358.79019773 131.33079509 357 150 C357.78503906 150.18175781 358.57007813 150.36351562 359.37890625 150.55078125 C374.14576358 154.0839557 374.14576358 154.0839557 377.875 157.9375 C383.11024799 167.53545465 379.9556154 180.91018911 377.2734375 190.9296875 C374.92575707 198.88343472 371.1218565 208.29106943 364.1875 213.3125 C358.5456249 215.08566075 352.68654276 213.7252576 347.0625 212.5 C346.37865234 212.35691406 345.69480469 212.21382812 344.99023438 212.06640625 C343.32550486 211.71716229 341.66255125 211.35947054 340 211 C339.8457959 211.53802246 339.6915918 212.07604492 339.53271484 212.63037109 C337.63553431 218.80584661 334.92732424 224.0913756 331.625 229.625 C331.15578125 230.43195313 330.6865625 231.23890625 330.203125 232.0703125 C327.99758708 235.82338255 325.74463044 239.38716995 323.0859375 242.8359375 C320.72952229 245.66400376 320.72952229 245.66400376 321.26074219 248.07275391 C322.26904979 250.70141316 323.82980544 252.08216188 325.875 254 C332.61979848 260.37147015 332.61979848 260.37147015 333.46875 264.0078125 C333.62182861 274.37888826 328.17453365 281.40167653 321.29174805 288.66357422 C319.87322757 290.12160977 318.4401845 291.56339043 317 293 C316.23171875 293.77988281 315.4634375 294.55976562 314.671875 295.36328125 C308.86140785 300.91248639 302.10301657 305.45768198 293.94921875 306.32421875 C290.47217667 305.94197439 289.14196794 305.05721552 286.5 302.8125 C285.73300781 302.17957031 284.96601563 301.54664063 284.17578125 300.89453125 C282.84863965 299.73894117 281.5308827 298.57230586 280.23046875 297.38671875 C278.54960824 295.83320366 278.54960824 295.83320366 276 294 C271.67999588 294.55471497 268.37934608 297.16923263 264.8125 299.5 C256.46568904 304.84936974 247.81807935 309.48182568 239 314 C239.32484375 315.37671875 239.32484375 315.37671875 239.65625 316.78125 C243.39370773 333.2537489 243.39370773 333.2537489 241.07421875 337.82421875 C233.57119104 348.02745113 218.19737455 351.67330808 206.35546875 353.58984375 C199.1564483 354.46981715 191.38604933 355.04749605 185 351 C182.99759719 348.19663607 182.01820663 345.27060313 181 342 C180.70351562 341.18015625 180.40703125 340.3603125 180.1015625 339.515625 C178.9123862 336.17720345 178 333.5692392 178 330 C177.16807129 330.16226074 176.33614258 330.32452148 175.47900391 330.49169922 C171.7414263 331.03777898 168.10234237 331.14405216 164.3359375 331.1328125 C163.26419785 331.13424759 163.26419785 331.13424759 162.17080688 331.13571167 C160.66985994 331.1363885 159.16890998 331.13456908 157.66796875 331.13037109 C155.37493322 331.12499984 153.08209213 331.13034105 150.7890625 331.13671875 C149.3255204 331.13605819 147.86197843 331.13477748 146.3984375 331.1328125 C145.37488663 331.13584885 145.37488663 331.13584885 144.33065796 331.13894653 C141.07402543 331.12293224 138.1151247 330.99616722 135 330 C134.82984375 330.76183594 134.6596875 331.52367187 134.484375 332.30859375 C130.53342716 349.14215341 130.53342716 349.14215341 125.1875 353.0625 C109.82001949 357.83622799 92.69628104 351.77418402 78.98828125 344.9765625 C75.0826495 342.39322961 71.64117612 339.5288345 70.44140625 334.796875 C70.48136719 334.12140625 70.52132812 333.4459375 70.5625 332.75 C70.60503906 331.98816406 70.64757812 331.22632813 70.69140625 330.44140625 C71.12613094 327.00212863 71.77960004 323.63797482 72.5625 320.26171875 C73.12661097 317.72940725 73.12661097 317.72940725 73 314 C72.01902344 313.52691406 71.03804687 313.05382812 70.02734375 312.56640625 C60.36293815 307.85062027 51.14619043 302.64813465 42 297 C40.33490463 295.99738583 38.66888108 294.99630001 37 294 C36.49210937 294.51949219 35.98421875 295.03898437 35.4609375 295.57421875 C33.32670451 297.73642858 31.16395034 299.86758263 29 302 C28.48824219 302.54269531 27.97648437 303.08539062 27.44921875 303.64453125 C24.78807839 306.24570225 22.51137607 307.39371737 18.875 307.6875 C6.64291512 306.84884535 -3.09688459 297.59728936 -11 289 C-16.28226257 282.59036986 -21.94610626 274.89433415 -21.69140625 266.18359375 C-20.3908605 262.07622046 -17.23504998 259.30372204 -14.26171875 256.296875 C-11.34979608 253.36346811 -11.34979608 253.36346811 -9 250 C-9.46569016 246.96908741 -10.59214792 244.76849477 -12.22265625 242.19921875 C-12.67535889 241.47589355 -13.12806152 240.75256836 -13.59448242 240.00732422 C-14.07892822 239.24178223 -14.56337402 238.47624023 -15.0625 237.6875 C-20.08022852 229.63577697 -24.65918045 221.43288153 -29 213 C-29.90621094 213.2165625 -30.81242187 213.433125 -31.74609375 213.65625 C-49.04697987 217.61073826 -49.04697987 217.61073826 -54.75 214.5 C-65.67678692 202.35912564 -69.58132151 185.19173053 -69.234375 169.21484375 C-68.91383738 164.81813611 -68.59052876 162.61104009 -66 159 C-63.14445535 157.19089718 -60.19138263 156.0838658 -57 155 C-56.18015625 154.7009375 -55.3603125 154.401875 -54.515625 154.09375 C-51.17634636 152.91518107 -48.56690156 152 -45 152 C-45.16265854 151.42131165 -45.32531708 150.84262329 -45.49290466 150.24639893 C-46.30825962 146.6344302 -46.12111581 142.98110114 -46.09765625 139.296875 C-46.0962413 138.45908508 -46.09482635 137.62129517 -46.09336853 136.75811768 C-46.08778197 134.08870843 -46.07523194 131.4193838 -46.0625 128.75 C-46.05748326 126.93750121 -46.05292066 125.12500111 -46.04882812 123.3125 C-46.03781694 118.87496752 -46.02056155 114.43749809 -46 110 C-47.25296875 109.61328125 -48.5059375 109.2265625 -49.796875 108.828125 C-51.448122 108.30272823 -53.09915251 107.77665073 -54.75 107.25 C-55.9875 106.87101562 -55.9875 106.87101562 -57.25 106.484375 C-61.72336016 105.04135559 -65.08198284 103.90092821 -68 100 C-72.68802384 85.93592848 -68.07311566 69.37577045 -62.1875 56.5 C-59.6033062 51.65544621 -57.00129759 47.54357839 -52 45 C-44.40855457 43.77994627 -36.44169856 46.37212844 -29 48 C-28.83636963 47.45110107 -28.67273926 46.90220215 -28.50415039 46.33666992 C-26.71006906 40.61327633 -24.39196665 35.5231782 -21.4375 30.3125 C-20.78539551 29.1517395 -20.78539551 29.1517395 -20.12011719 27.9675293 C-14.38668706 17.94845289 -7.75124898 8.56716992 0 0 Z " fill="#0F6CB6" transform="translate(69,261)"/>
<path d="M0 0 C8.64422733 0.10378496 16.94431336 2.89445329 25.22460938 5.14672852 C27.09830586 5.64669884 28.97229487 6.14557403 30.84655762 6.64341736 C35.77799162 7.95647453 40.70530847 9.28437385 45.63189697 10.61547852 C50.55492582 11.94284773 55.48169019 13.2561894 60.40820312 14.57055664 C66.12333721 16.09592976 71.83749602 17.62459921 77.54736328 19.16958618 C85.53037622 21.32934147 93.51282548 23.47673879 101.53320312 25.49389648 C102.75036011 25.80483749 103.96751709 26.1157785 105.22155762 26.43614197 C107.38177245 26.98547532 109.54537977 27.52174023 111.7130127 28.04103088 C117.12467521 29.43069549 120.65517654 30.68670637 124.13085938 35.36157227 C124.94494756 40.85666749 123.65945364 44.58533866 121.13085938 49.36157227 C116.7668067 52.27094072 112.98920644 51.72595404 107.94335938 50.73657227 C104.72982191 50.3081006 103.78260907 50.5948475 101.13085938 52.36157227 C100.12531406 54.211732 100.12531406 54.211732 99.61656189 56.44160461 C99.27139322 57.69689736 99.27139322 57.69689736 98.91925144 58.97754955 C98.68736087 59.88456269 98.45547029 60.79157583 98.21655273 61.72607422 C97.83506403 63.13914463 97.83506403 63.13914463 97.44586849 64.58076191 C96.65986197 67.50409332 95.89506707 70.4324783 95.13085938 73.36157227 C94.67751934 75.05137958 94.22245656 76.74072597 93.76541138 78.42953491 C92.40889498 83.45731938 91.08323006 88.49297378 89.75976562 93.52954102 C89.269651 95.38785652 88.77932495 97.24611628 88.2888031 99.10432434 C87.01234955 103.94170575 85.73831416 108.77972032 84.46496582 113.61791992 C82.68516067 120.37898323 80.90241155 127.13927054 79.11923218 133.89944458 C78.13830878 137.61832107 77.15916247 141.33765879 76.18130493 145.05734253 C74.09700306 152.97767847 71.99984583 160.89290942 69.81396484 168.78588867 C69.47622543 170.01157059 69.13848602 171.2372525 68.79051208 172.50007629 C68.18219771 174.69706782 67.56690762 176.89214589 66.94300842 179.08476257 C66.68394211 180.02084854 66.42487579 180.95693451 66.15795898 181.92138672 C65.93305283 182.71607864 65.70814667 183.51077057 65.47642517 184.32954407 C64.93386383 186.55525413 64.93386383 186.55525413 66.13085938 189.36157227 C68.18527839 190.92613704 70.23569619 192.37019372 72.38085938 193.79907227 C89.50782871 205.63605352 102.93522998 220.90332001 114.13085938 238.36157227 C114.50484863 238.94277832 114.87883789 239.52398437 115.26416016 240.12280273 C130.58562921 264.33878404 137.56806277 293.09353791 137.44335938 321.54907227 C137.44120422 322.22410797 137.43904907 322.89914368 137.43682861 323.59463501 C137.26112227 358.05491464 125.91615219 393.91599145 103.13085938 420.36157227 C102.14085937 421.02157227 101.15085937 421.68157227 100.13085938 422.36157227 C100.63826788 417.87946384 101.2779788 413.47895941 102.13085938 409.04907227 C108.77007378 372.92976406 100.06072778 335.17426998 79.30664062 305.02319336 C73.33105058 296.57845377 66.44454372 288.67525661 59.13085938 281.36157227 C58.9240644 278.99229266 58.81634418 276.61409021 58.75585938 274.23657227 C57.87261177 254.63159026 50.93672667 237.3965599 36.50585938 223.73657227 C23.03620429 212.60832207 5.73808267 206.06472296 -11.86914062 207.36157227 C-31.28611206 209.48596739 -46.75379329 218.10726234 -59.79882812 232.61157227 C-61.96389888 235.48743984 -63.1807637 238.26135358 -64.61914062 241.54907227 C-68.04348232 247.79909452 -72.30642669 249.15760474 -78.80664062 251.11157227 C-80.67932292 251.65285887 -82.55302848 252.19061765 -84.42773438 252.72485352 C-100.6303574 257.36267375 -116.23218994 267.46562562 -128.86914062 278.36157227 C-129.825625 279.17239258 -130.78210938 279.98321289 -131.76757812 280.81860352 C-153.02242634 299.26329077 -165.19639996 324.02862979 -173.86914062 350.36157227 C-174.52914062 350.03157227 -175.18914062 349.70157227 -175.86914062 349.36157227 C-184.40156605 311.75569726 -173.81629868 269.41273528 -153.99707031 237.13256836 C-150.91881816 232.29931271 -147.48386801 227.80202811 -143.86914062 223.36157227 C-143.40604492 222.79164551 -142.94294922 222.22171875 -142.46582031 221.63452148 C-116.32494052 189.68743307 -78.95267005 169.59576945 -37.98828125 164.54614258 C-34.60450999 164.25142702 -31.2638173 164.29244989 -27.86914062 164.36157227 C-27.75563766 163.24622101 -27.6421347 162.13086975 -27.52519226 160.98171997 C-26.89966932 156.01167866 -25.67138976 151.27015297 -24.37231445 146.43920898 C-24.11845978 145.47851501 -23.8646051 144.51782104 -23.60305786 143.52801514 C-22.76575503 140.36441539 -21.9210359 137.20284784 -21.07617188 134.04125977 C-20.48619332 131.8186477 -19.89665721 129.59591815 -19.30754089 127.37307739 C-17.7543779 121.5178948 -16.19482098 115.66443326 -14.6340332 109.8112793 C-13.37673093 105.09212525 -12.12382378 100.37181014 -10.87120533 95.65141106 C-8.2564505 85.7981864 -5.63819642 75.9458908 -3.01293945 66.09545898 C-2.7534895 65.11891294 -2.49403955 64.14236691 -2.22672749 63.13622856 C-0.89524947 58.13993475 0.46387822 53.15330058 1.86685181 48.17657471 C2.14664289 47.17668581 2.42643396 46.17679691 2.71470356 45.14660835 C3.24525809 43.25585212 3.78204487 41.36682895 4.32627392 39.4799633 C5.57314095 35.02367549 6.60579222 31.03662793 6.13085938 26.36157227 C3.93535581 23.15979623 1.62410421 22.08611054 -1.93164062 20.86157227 C-4.36310624 19.99967214 -5.88317837 19.35051223 -7.93164062 17.73657227 C-9.45054201 13.88868877 -8.81560079 10.32399134 -7.86914062 6.36157227 C-4.91815601 0.45960305 -4.91815601 0.45960305 0 0 Z M22.13085938 37.36157227 C19.13969397 45.84044269 16.88859776 54.49977156 14.59570312 63.18579102 C14.15335979 64.85315658 13.71077321 66.52045763 13.26795959 68.18769836 C12.10040994 72.58645595 10.93633349 76.98612553 9.77294922 81.38598633 C8.62689803 85.71763093 7.47730121 90.04833404 6.328125 94.37915039 C0.23126623 117.36509457 -5.82502245 140.36171105 -11.86914062 163.36157227 C-6.10561424 166.27676777 -6.10561424 166.27676777 0.13085938 165.36157227 C0.41376831 164.28813568 0.69667725 163.2146991 0.98815918 162.10873413 C3.69298575 151.84608927 6.39827918 141.58356757 9.10399628 131.32115746 C10.76531149 125.01995064 12.42627925 118.71865239 14.08695984 112.41727829 C15.15942706 108.34834437 16.2323886 104.27954084 17.30532837 100.21073151 C18.09697104 97.20751866 18.88775784 94.20408136 19.6784668 91.20062256 C21.99165129 82.42047618 24.31576752 73.64397035 26.69726562 64.88208008 C27.08016403 63.46824345 27.46301895 62.05439504 27.8458252 60.64053345 C28.5311431 58.11029553 29.22448211 55.58275031 29.92272949 53.05599976 C30.21893188 51.96397247 30.51513428 50.87194519 30.8203125 49.74682617 C31.07590942 48.81770416 31.33150635 47.88858215 31.59484863 46.93130493 C32.30101894 43.98330308 32.30101894 43.98330308 32.13085938 39.36157227 C28.83085937 38.70157227 25.53085937 38.04157227 22.13085938 37.36157227 Z " fill="#8DC63F" transform="translate(262.869140625,-0.361572265625)"/>
<path d="M0 0 C10.60144281 10.159007 16.52526321 22.08793591 17.6875 36.75 C17.85037824 52.74826234 12.87642036 66.34987671 1.875 78.0625 C-9.14858446 88.42890923 -23.08114816 93.13152995 -38.02734375 92.96484375 C-51.36607627 92.09251285 -63.64194532 87.03721737 -73.3125 77.75 C-83.43685614 65.71945958 -89.11465079 52.75247 -88.58984375 36.77734375 C-87.25214791 22.17573419 -81.69945462 9.94306335 -70.91015625 -0.09765625 C-50.13982969 -17.3073554 -20.6645503 -17.64122997 0 0 Z " fill="#0F6CB6" transform="translate(243.3125,414.25)"/>
<path d="M0 0 C11.57449777 12.9816713 15.77359685 26.904599 15.13183594 44.04199219 C14.26825156 56.86781945 7.30580866 69.38964323 -2 78 C-14.14103135 88.03127836 -28.33239651 92.25580028 -44 91 C-59.65199818 88.58105483 -72.4105792 80.78441635 -81.875 68.125 C-90.39168564 55.26962545 -92.21329154 39.29500413 -89.28125 24.33203125 C-88.35346511 21.44018562 -87.29088979 18.74738715 -86 16 C-85.649375 15.21753906 -85.29875 14.43507812 -84.9375 13.62890625 C-78.64505612 1.02216972 -67.98133953 -7.73107674 -54.8125 -12.375 C-35.08074708 -18.26168173 -15.51428315 -13.37773085 0 0 Z " fill="#8DC63F" transform="translate(293,235)"/>
<path d="M0 0 C18.15 0 36.3 0 55 0 C56.65 5.28 58.3 10.56 60 16 C62.54328558 10.07525795 62.54328558 10.07525795 64.6875 4.0625 C65.120625 2.721875 65.55375 1.38125 66 0 C71.61 0 77.22 0 83 0 C82.17796485 4.93221087 81.37979586 7.73940636 79.3125 12.09375 C70.94561076 30.61249852 68.24840303 45.62015909 69 66 C63.39 66 57.78 66 52 66 C52.04382813 64.19660156 52.08765625 62.39320313 52.1328125 60.53515625 C52.23109627 42.28547693 49.14459786 28.56472338 41 12 C40.67 12.66 40.34 13.32 40 14 C36.04 14 32.08 14 28 14 C28 31.16 28 48.32 28 66 C22.72 66 17.44 66 12 66 C12 48.84 12 31.68 12 14 C8.04 14 4.08 14 0 14 C0 9.38 0 4.76 0 0 Z " fill="#0F6CB6" transform="translate(688,548)"/>
<path d="M0 0 C5.28 0 10.56 0 16 0 C19.3 9.9 22.6 19.8 26 30 C26 20.1 26 10.2 26 0 C30.95 0 35.9 0 41 0 C41 21.78 41 43.56 41 66 C35.39 66 29.78 66 24 66 C23.44570312 64.32550781 22.89140625 62.65101563 22.3203125 60.92578125 C21.58862152 58.72132766 20.85684628 56.51690204 20.125 54.3125 C19.76019531 53.20970703 19.39539062 52.10691406 19.01953125 50.97070312 C18.66503906 49.90400391 18.31054688 48.83730469 17.9453125 47.73828125 C17.45828857 46.26935425 17.45828857 46.26935425 16.96142578 44.77075195 C16.05272602 42.15195216 15.02948582 39.57371455 14 37 C14 46.57 14 56.14 14 66 C9.38 66 4.76 66 0 66 C0 44.22 0 22.44 0 0 Z " fill="#0F6CB6" transform="translate(1292,548)"/>
<path d="M0 0 C5.61 0 11.22 0 17 0 C20.3 9.9 23.6 19.8 27 30 C27 20.1 27 10.2 27 0 C31.62 0 36.24 0 41 0 C41 21.78 41 43.56 41 66 C35.72 66 30.44 66 25 66 C22.51384857 59.57425476 20.3781862 53.07160879 18.3125 46.5 C16.6728125 41.3025 16.6728125 41.3025 15 36 C15 45.9 15 55.8 15 66 C10.05 66 5.1 66 0 66 C0 44.22 0 22.44 0 0 Z " fill="#0F6CB6" transform="translate(1787,548)"/>
<path d="M0 0 C5.61 0 11.22 0 17 0 C21.455 14.355 21.455 14.355 26 29 C26.33 19.43 26.66 9.86 27 0 C31.62 0 36.24 0 41 0 C41 21.78 41 43.56 41 66 C35.39 66 29.78 66 24 66 C19.545 51.645 19.545 51.645 15 37 C14.67 46.57 14.34 56.14 14 66 C9.38 66 4.76 66 0 66 C0 44.22 0 22.44 0 0 Z M27 32 C28 35 28 35 28 35 Z " fill="#0F6CB6" transform="translate(1064,548)"/>
<path d="M0 0 C5.61 0 11.22 0 17 0 C21.455 14.355 21.455 14.355 26 29 C26.33 19.43 26.66 9.86 27 0 C31.62 0 36.24 0 41 0 C41 21.78 41 43.56 41 66 C35.39 66 29.78 66 24 66 C19.545 51.645 19.545 51.645 15 37 C14.67 46.57 14.34 56.14 14 66 C9.38 66 4.76 66 0 66 C0 44.22 0 22.44 0 0 Z M27 32 C28 35 28 35 28 35 Z " fill="#0F6CB6" transform="translate(1669,548)"/>
<path d="M0 0 C3.80169545 2.85127159 6.14723044 5.43732269 6.84765625 10.27734375 C7.0598079 16.41129372 6.20535375 20.88740832 1.96484375 25.5703125 C0.51505658 27.04409142 -0.988658 28.46441413 -2.5 29.875 C-1.18 32.185 0.14 34.495 1.5 36.875 C2.16 34.895 2.82 32.915 3.5 30.875 C7.46 30.875 11.42 30.875 15.5 30.875 C16.02009261 36.72604191 14.56728384 40.84481779 12.27734375 46.2265625 C11.06841719 50.34541781 11.8998907 52.76621079 13.91015625 56.48046875 C14.45542969 57.33253906 15.00070312 58.18460938 15.5625 59.0625 C18.5 63.67264706 18.5 63.67264706 18.5 65.875 C13.22 65.875 7.94 65.875 2.5 65.875 C2.17 64.885 1.84 63.895 1.5 62.875 C0.98953125 63.16375 0.4790625 63.4525 -0.046875 63.75 C-7.13916172 67.37159322 -14.09026033 68.30331411 -21.8671875 66.25 C-26.45920211 64.30922401 -29.21079864 61.49548724 -31.58984375 57.140625 C-34.32704502 50.32699093 -33.87139106 44.0038402 -31.52734375 37.14453125 C-29.75781673 33.23542404 -27.42791377 29.83895688 -23.5 27.875 C-23.98658734 25.11767176 -24.58937272 22.63316794 -25.5625 20 C-27.05766431 15.01611897 -27.27874949 10.89009553 -24.9375 6.1875 C-19.25607382 -2.54105787 -9.2535271 -2.974348 0 0 Z M-10.5 8.875 C-11.49 9.535 -12.48 10.195 -13.5 10.875 C-12.93260132 15.00473628 -12.93260132 15.00473628 -11.5 18.875 C-9.45163118 18.31137698 -9.45163118 18.31137698 -7.5 16.875 C-6.68415432 13.81591587 -6.68415432 13.81591587 -6.5 10.875 C-7.82 10.215 -9.14 9.555 -10.5 8.875 Z M-15.5 37.875 C-18.53640368 41.88305286 -19.13339684 44.89831052 -18.5 49.875 C-17.10314994 52.5219872 -17.10314994 52.5219872 -14.5 53.875 C-10.80567489 53.72887105 -10.80567489 53.72887105 -7.5 52.875 C-7.5 48.95073665 -8.94326469 47.04600092 -10.9375 43.6875 C-11.57558594 42.60082031 -12.21367188 41.51414062 -12.87109375 40.39453125 C-13.40863281 39.56308594 -13.94617187 38.73164062 -14.5 37.875 C-14.83 37.875 -15.16 37.875 -15.5 37.875 Z " fill="#0F6CB6" transform="translate(1581.5,548.125)"/>
<path d="M0 0 C31.92727273 0 31.92727273 0 37.5625 5.4375 C41.85505246 11.06767503 41.52387935 17.18053604 41 24 C39.625 27.5 39.625 27.5 38 30 C37.608125 30.78375 37.21625 31.5675 36.8125 32.375 C36.544375 32.91125 36.27625 33.4475 36 34 C36.63679688 34.78375 37.27359375 35.5675 37.9296875 36.375 C40.76107675 40.6258258 40.82455735 45.01704866 41.125 50 C41.24598836 51.75046983 41.37343877 53.50050678 41.5078125 55.25 C41.55566895 56.01828125 41.60352539 56.7865625 41.65283203 57.578125 C42.02062307 60.65658039 42.02062307 60.65658039 44 66 C38.06 66 32.12 66 26 66 C24.48240756 60.68842647 23.76831201 58.07404729 23.9375 52.9375 C24.01501728 48.81874864 23.89890285 45.04506281 23 41 C20.36 40.67 17.72 40.34 15 40 C15 48.58 15 57.16 15 66 C10.05 66 5.1 66 0 66 C0 44.22 0 22.44 0 0 Z M15 12 C15 16.95 15 21.9 15 27 C20.76887492 27.5547002 20.76887492 27.5547002 24 25 C25.24058763 19.68091213 25.24058763 19.68091213 24 14.5625 C21.49005178 12.3342776 21.49005178 12.3342776 15 12 Z " fill="#0F6CB6" transform="translate(1920,548)"/>
<path d="M0 0 C6.15478024 3.79763036 9.0016545 7.88930364 10.9375 14.8125 C11.32088706 17.61514548 11.35973635 20.3616329 11.3359375 23.1875 C11.33880768 23.95626465 11.34167786 24.7250293 11.34463501 25.51708984 C11.34666206 27.13054142 11.3412281 28.74401834 11.32861328 30.35742188 C11.31253901 32.80655633 11.32850744 35.25404097 11.34765625 37.703125 C11.34567358 39.28125359 11.3418294 40.85938116 11.3359375 42.4375 C11.34504654 43.519104 11.34504654 43.519104 11.3543396 44.62255859 C11.26647339 51.07394089 9.79645704 56.4888037 5.6875 61.625 C-1.47459039 67.32211736 -8.09932494 67.63865124 -17.0625 66.8125 C-22.21203305 65.64297577 -25.74023834 62.87304203 -29.0625 58.8125 C-36.34826171 45.80221122 -34.42003929 23.98665733 -31.0625 9.8125 C-29.13512275 4.92919322 -25.542345 2.38602798 -21.0625 -0.1875 C-14.82861181 -2.26546273 -6.18950775 -2.42914162 0 0 Z M-14.69384766 13.3671875 C-16.5633452 16.70733866 -16.49279974 19.77206478 -16.4609375 23.5 C-16.46380768 24.23951904 -16.46667786 24.97903809 -16.46963501 25.7409668 C-16.47167203 27.30095182 -16.46616745 28.8609626 -16.45361328 30.42089844 C-16.4375531 32.80461908 -16.45347279 35.1866444 -16.47265625 37.5703125 C-16.47067375 39.0885454 -16.46682994 40.60677724 -16.4609375 42.125 C-16.46701019 42.83551514 -16.47308289 43.54603027 -16.4793396 44.27807617 C-16.4209022 48.40292288 -15.97387998 50.81342204 -13.0625 53.8125 C-10.12158413 53.62834568 -10.12158413 53.62834568 -7.0625 52.8125 C-3.4804209 47.95339 -4.7296556 40.88728833 -4.74682617 35.11352539 C-4.74998478 32.88573215 -4.7265166 30.65926972 -4.70117188 28.43164062 C-4.69889846 27.00781417 -4.69819558 25.58398416 -4.69921875 24.16015625 C-4.69623779 22.87117432 -4.69325684 21.58219238 -4.69018555 20.25415039 C-5.08566947 16.59832294 -5.80133962 14.68600869 -8.0625 11.8125 C-11.14233336 11.11953749 -12.38364376 11.16554452 -14.69384766 13.3671875 Z " fill="#0F6CB6" transform="translate(827.0625,548.1875)"/>
<path d="M0 0 C5.78076053 4.49303663 7.64320903 9.19434291 8.61328125 16.25390625 C8.8915744 21.25707058 8.89275031 26.2441662 8.86328125 31.25390625 C8.87488281 33.22617187 8.87488281 33.22617187 8.88671875 35.23828125 C8.84891454 54.0647763 8.84891454 54.0647763 2.2890625 60.8125 C-3.54756091 65.83281244 -9.54534876 65.7757381 -17 65.609375 C-23.65816121 64.91053686 -27.984552 62.20761684 -32.38671875 57.25390625 C-35.81682686 48.91267235 -35.81943169 40.00542978 -35.69921875 31.12890625 C-35.70244141 29.93136719 -35.70566406 28.73382812 -35.70898438 27.5 C-35.5931333 8.26872073 -35.5931333 8.26872073 -29.0625 1.66015625 C-21.42753843 -4.74680451 -8.4666238 -5.20325702 0 0 Z M-17.19921875 11.31640625 C-20.56689057 16.81102869 -19.53542211 24.46927425 -19.51171875 30.69140625 C-19.51558594 31.70267578 -19.51945313 32.71394531 -19.5234375 33.75585938 C-19.84757407 42.82380268 -19.84757407 42.82380268 -17.19921875 51.25390625 C-14.43946123 52.77653109 -12.34976087 51.97820544 -9.38671875 51.25390625 C-7.26871959 44.33678996 -7.08577089 37.89628325 -7.13671875 30.69140625 C-7.12898437 29.59376953 -7.12125 28.49613281 -7.11328125 27.36523438 C-7.1271644 21.60719853 -7.42378462 16.6831328 -9.38671875 11.25390625 C-13.41347649 10.11209156 -13.41347649 10.11209156 -17.19921875 11.31640625 Z " fill="#0F6CB6" transform="translate(563.38671875,549.74609375)"/>
<path d="M0 0 C3.57071676 3.02543489 5.12516743 6.96143978 6.5859375 11.34375 C6.71737221 14.68219165 6.62934726 18.00119868 6.5859375 21.34375 C1.6359375 21.34375 -3.3140625 21.34375 -8.4140625 21.34375 C-9.0740625 18.37375 -9.7340625 15.40375 -10.4140625 12.34375 C-12.8890625 11.84875 -12.8890625 11.84875 -15.4140625 11.34375 C-17.04966589 15.65771485 -17.67027175 19.23810176 -17.6796875 23.84375 C-17.68226562 25.060625 -17.68484375 26.2775 -17.6875 27.53125 C-17.67976563 28.789375 -17.67203125 30.0475 -17.6640625 31.34375 C-17.67179687 32.601875 -17.67953125 33.86 -17.6875 35.15625 C-17.68363281 36.9815625 -17.68363281 36.9815625 -17.6796875 38.84375 C-17.67743164 39.9471875 -17.67517578 41.050625 -17.67285156 42.1875 C-17.39998404 45.5154541 -16.59417948 48.23114753 -15.4140625 51.34375 C-12.9390625 50.84875 -12.9390625 50.84875 -10.4140625 50.34375 C-9.7540625 47.04375 -9.0940625 43.74375 -8.4140625 40.34375 C-10.3940625 40.34375 -12.3740625 40.34375 -14.4140625 40.34375 C-14.4140625 36.05375 -14.4140625 31.76375 -14.4140625 27.34375 C-7.1540625 27.34375 0.1059375 27.34375 7.5859375 27.34375 C7.5859375 39.55375 7.5859375 51.76375 7.5859375 64.34375 C3.6259375 64.34375 -0.3340625 64.34375 -4.4140625 64.34375 C-4.9090625 63.35375 -4.9090625 63.35375 -5.4140625 62.34375 C-6.8371875 63.1171875 -6.8371875 63.1171875 -8.2890625 63.90625 C-13.07145174 65.9433732 -17.43242947 65.54592921 -22.4140625 64.34375 C-27.26849357 61.91653446 -29.88595799 59.12909067 -32.4140625 54.34375 C-34.60279031 46.66756889 -34.71466495 39.35505227 -34.6640625 31.40625 C-34.67179687 30.19517578 -34.67953125 28.98410156 -34.6875 27.73632812 C-34.64561496 8.39591087 -34.64561496 8.39591087 -28.09375 1.75 C-20.57893022 -4.54147702 -8.3959736 -4.95964685 0 0 Z " fill="#0F6CB6" transform="translate(1750.4140625,549.65625)"/>
<path d="M0 0 C5.58436422 3.42920447 7.79838396 7.80644245 9.859375 13.8359375 C10.375 16.3125 10.375 16.3125 10.375 23.3125 C5.095 23.3125 -0.185 23.3125 -5.625 23.3125 C-6.285 20.0125 -6.945 16.7125 -7.625 13.3125 C-10.595 12.8175 -10.595 12.8175 -13.625 12.3125 C-15.97678291 16.01182883 -15.88310328 19.24717928 -15.890625 23.5625 C-15.89253845 24.25762695 -15.8944519 24.95275391 -15.89642334 25.66894531 C-15.89778089 27.13476932 -15.89411451 28.60060552 -15.88574219 30.06640625 C-15.87503605 32.30496326 -15.88565151 34.54271783 -15.8984375 36.78125 C-15.89711583 38.2083351 -15.89455328 39.6354197 -15.890625 41.0625 C-15.88836914 42.35671875 -15.88611328 43.6509375 -15.88378906 44.984375 C-15.64486609 48.05701455 -15.25492306 49.74864883 -13.625 52.3125 C-11.975 52.3125 -10.325 52.3125 -8.625 52.3125 C-6.95389958 49.35071227 -6.29817248 46.94178808 -6 43.5625 C-5.87625 42.16 -5.7525 40.7575 -5.625 39.3125 C-0.345 39.3125 4.935 39.3125 10.375 39.3125 C10.76403008 47.352455 10.15650091 54.68109603 5.125 61.25 C-2.19088263 66.73691198 -8.62327664 67.11364225 -17.625 66.3125 C-22.04003025 65.46481419 -25.45188758 63.85644749 -28.5 60.5 C-36.86548043 47.95177935 -34.68518037 26.59921849 -32.3125 12.21484375 C-31.03359424 6.81582681 -29.04274933 4.38304541 -24.5625 1 C-17.5409978 -3.03362893 -7.40392355 -3.47102654 0 0 Z " fill="#0F6CB6" transform="translate(1209.625,548.6875)"/>
<path d="M0 0 C4.53219535 3.60515539 6.75414694 7.42332442 8 13 C8.21803591 16.0525028 8.14377218 18.93286023 8 22 C2.72 22 -2.56 22 -8 22 C-8.66 18.7 -9.32 15.4 -10 12 C-14.47702364 10.93462795 -14.47702364 10.93462795 -17 11 C-17.79988081 15.21943084 -18.12842498 19.20774733 -18.1328125 23.5 C-18.13410156 24.716875 -18.13539063 25.93375 -18.13671875 27.1875 C-18.13091797 29.0746875 -18.13091797 29.0746875 -18.125 31 C-18.12886719 32.258125 -18.13273438 33.51625 -18.13671875 34.8125 C-18.13478516 36.6378125 -18.13478516 36.6378125 -18.1328125 38.5 C-18.13168457 39.6034375 -18.13055664 40.706875 -18.12939453 41.84375 C-18.00107437 44.97379338 -17.58293188 47.92499094 -17 51 C-14.08365871 51.2502157 -14.08365871 51.2502157 -11 51 C-8.89172945 47.83759418 -8.66182535 46.49342531 -8.375 42.8125 C-8.25125 41.224375 -8.1275 39.63625 -8 38 C-2.72 38 2.56 38 8 38 C8.32281894 46.60850509 7.81105487 52.48223324 3.25 59.8125 C-1.76639947 64.68955504 -6.19682755 65.20889282 -13 65.375 C-20.12357924 65.20125416 -24.07065795 64.26358249 -29.75 59.875 C-35.90415291 52.01136017 -35.4706491 42.78441556 -35.39111328 33.2890625 C-35.37503239 31.0046009 -35.39102139 28.72190786 -35.41015625 26.4375 C-35.43524293 9.38947707 -35.43524293 9.38947707 -29.75 2.125 C-21.2381061 -4.45237256 -9.40603858 -5.68281497 0 0 Z " fill="#0F6CB6" transform="translate(612,550)"/>
<path d="M0 0 C0.74886475 0.00523682 1.49772949 0.01047363 2.26928711 0.01586914 C3.07817383 0.0190918 3.88706055 0.02231445 4.72045898 0.02563477 C5.5705957 0.03401367 6.42073242 0.04239258 7.29663086 0.05102539 C8.15063477 0.05553711 9.00463867 0.06004883 9.88452148 0.06469727 C12.00108749 0.07652166 14.11761771 0.0944577 16.23413086 0.11352539 C17.73267727 3.6242146 18.75912062 7.01320289 19.56274414 10.74243164 C19.8028421 11.84707764 20.04294006 12.95172363 20.29031372 14.08984375 C20.5424765 15.27328369 20.79463928 16.45672363 21.05444336 17.67602539 C21.317966 18.9000708 21.58148865 20.12411621 21.85299683 21.38525391 C22.40820035 23.97033984 22.96156299 26.55574072 23.51196289 29.1418457 C24.2160363 32.44848708 24.92872567 35.75320178 25.64393806 39.05744934 C26.32732909 42.22092863 27.00300929 45.38605244 27.67944336 48.55102539 C27.9356546 49.73446533 28.19186584 50.91790527 28.45584106 52.13720703 C28.80653152 53.79417603 28.80653152 53.79417603 29.16430664 55.48461914 C29.37145294 56.45326904 29.57859924 57.42191895 29.79202271 58.41992188 C30.23413086 61.11352539 30.23413086 61.11352539 30.23413086 66.11352539 C24.95413086 66.11352539 19.67413086 66.11352539 14.23413086 66.11352539 C13.57413086 62.15352539 12.91413086 58.19352539 12.23413086 54.11352539 C8.93413086 54.11352539 5.63413086 54.11352539 2.23413086 54.11352539 C1.57413086 58.07352539 0.91413086 62.03352539 0.23413086 66.11352539 C-5.04586914 66.11352539 -10.32586914 66.11352539 -15.76586914 66.11352539 C-15.14494031 58.27932118 -13.77566145 50.80850817 -12.07836914 43.14086914 C-11.81580322 41.93660782 -11.5532373 40.7323465 -11.28271484 39.49159241 C-10.73065542 36.9656437 -10.17584335 34.44029516 -9.6184082 31.91552734 C-9.04664324 29.32375541 -8.47740891 26.73161975 -7.91333008 24.13818359 C-7.09757858 20.38813709 -6.27652687 16.63929617 -5.45336914 12.89086914 C-5.19918213 11.72434311 -4.94499512 10.55781708 -4.68310547 9.35594177 C-4.44615967 8.28715286 -4.20921387 7.21836395 -3.96508789 6.1171875 C-3.757146 5.17250107 -3.5492041 4.22781464 -3.33496094 3.25450134 C-2.51282399 0.16154613 -2.51282399 0.16154613 0 0 Z M6.23413086 20.11352539 C5.24413086 27.04352539 4.25413086 33.97352539 3.23413086 41.11352539 C5.87413086 41.11352539 8.51413086 41.11352539 11.23413086 41.11352539 C10.24413086 34.18352539 9.25413086 27.25352539 8.23413086 20.11352539 C7.57413086 20.11352539 6.91413086 20.11352539 6.23413086 20.11352539 Z " fill="#0F6CB6" transform="translate(1030.765869140625,547.886474609375)"/>
<path d="M0 0 C6.27 0 12.54 0 19 0 C22.81281512 16.02773044 26.50680771 32.07328982 29.9375 48.1875 C30.09251984 48.91081512 30.24753967 49.63413025 30.40725708 50.37936401 C30.84663764 52.43317185 31.28157619 54.48786369 31.71484375 56.54296875 C31.96355225 57.71883545 32.21226074 58.89470215 32.46850586 60.10620117 C33 63 33 63 33 66 C27.72 66 22.44 66 17 66 C15 57.5 15 57.5 15 53 C11.37 53 7.74 53 4 53 C3.855625 54.77375 3.71125 56.5475 3.5625 58.375 C3.125 63.75 3.125 63.75 2 66 C-3.28 66 -8.56 66 -14 66 C-12.6959866 57.86764307 -11.18410026 49.8244118 -9.43359375 41.77734375 C-9.07516136 40.1154879 -9.07516136 40.1154879 -8.70948792 38.4200592 C-8.20911995 36.10307193 -7.7073916 33.78637804 -7.2043457 31.4699707 C-6.43289094 27.91626839 -5.66632742 24.36153589 -4.90039062 20.80664062 C-4.41174389 18.54681323 -3.9228216 16.28704541 -3.43359375 14.02734375 C-3.08982948 12.4336924 -3.08982948 12.4336924 -2.73912048 10.80784607 C-2.52542313 9.82574661 -2.31172577 8.84364716 -2.09155273 7.83178711 C-1.81081154 6.53705727 -1.81081154 6.53705727 -1.5243988 5.21617126 C-1 3 -1 3 0 0 Z M9 17 C8.49515526 20.24926665 7.99697406 23.49952099 7.5 26.75 C7.35691406 27.67039062 7.21382812 28.59078125 7.06640625 29.5390625 C6.86337891 30.87324219 6.86337891 30.87324219 6.65625 32.234375 C6.46772461 33.45979004 6.46772461 33.45979004 6.27539062 34.70996094 C5.9204029 37.27747479 5.9204029 37.27747479 6 41 C8.31 41 10.62 41 13 41 C12.38541771 32.9295642 11.30774665 24.98614219 10 17 C9.67 17 9.34 17 9 17 Z " fill="#0F6CB6" transform="translate(918,548)"/>
<path d="M0 0 C3.78353547 2.29087485 6.07377463 5.23596461 7.4375 9.4375 C8.01200489 12.80105429 8.25014908 16.01834577 8.4375 19.4375 C3.4875 19.4375 -1.4625 19.4375 -6.5625 19.4375 C-7.2225 17.1275 -7.8825 14.8175 -8.5625 12.4375 C-9.8825 12.1075 -11.2025 11.7775 -12.5625 11.4375 C-13.2225 13.0875 -13.8825 14.7375 -14.5625 16.4375 C-11.69052581 20.40879445 -8.85169687 22.75888309 -4.6875 25.3125 C1.08878827 29.04346031 6.18192884 32.67078653 8.4375 39.4375 C9.65201454 55.10672853 9.65201454 55.10672853 4.4375 61.4375 C-2.54347817 66.99378875 -8.93083646 67.00043458 -17.5625 66.4375 C-23.16058609 65.28265007 -26.44864388 62.15276784 -29.5625 57.4375 C-31.58058903 52.26614687 -31.5625 48.11106898 -31.5625 42.4375 C-26.6125 42.4375 -21.6625 42.4375 -16.5625 42.4375 C-16.07421875 44.74869792 -15.5859375 47.05989583 -15.09765625 49.37109375 C-14.75497006 51.41411204 -14.75497006 51.41411204 -13.5625 52.4375 C-11.89632885 52.47813832 -10.22861905 52.480221 -8.5625 52.4375 C-7.60882548 49.73159604 -7.60882548 49.73159604 -7.5625 46.4375 C-10.85699238 41.78681621 -14.27269522 39.06431762 -19.125 36 C-25.02584733 32.11842591 -27.76530639 29.08025016 -30.3125 22.5 C-31.113069 15.89530575 -30.80744079 11.36790902 -27.5625 5.4375 C-20.75660668 -2.62211051 -9.68093472 -4.23995825 0 0 Z " fill="#0F6CB6" transform="translate(982.5625,548.5625)"/>
<path d="M0 0 C3.78353547 2.29087485 6.07377463 5.23596461 7.4375 9.4375 C8.01200489 12.80105429 8.25014908 16.01834577 8.4375 19.4375 C3.4875 19.4375 -1.4625 19.4375 -6.5625 19.4375 C-7.2225 17.1275 -7.8825 14.8175 -8.5625 12.4375 C-10.63803648 11.8840236 -12.40615964 11.4375 -14.5625 11.4375 C-14.6200003 14.25501449 -14.57938278 15.86005453 -13.5625 18.4375 C-10.85274951 21.18274941 -7.74358083 23.27176415 -4.5625 25.4375 C7.19306118 33.84313728 7.19306118 33.84313728 8.4375 40.4375 C8.94643912 47.37668917 9.16465792 53.42595496 5.4375 59.4375 C1.55647001 63.47450519 -1.68193156 66.23508168 -7.453125 66.640625 C-19.1757848 66.804197 -19.1757848 66.804197 -24.5625 63.4375 C-29.14826379 58.95364207 -31.34667597 54.67211637 -31.67578125 48.21484375 C-31.68597238 46.2887193 -31.6300427 44.36246682 -31.5625 42.4375 C-26.6125 42.4375 -21.6625 42.4375 -16.5625 42.4375 C-16.07421875 44.74869792 -15.5859375 47.05989583 -15.09765625 49.37109375 C-14.75497006 51.41411204 -14.75497006 51.41411204 -13.5625 52.4375 C-11.89632885 52.47813832 -10.22861905 52.480221 -8.5625 52.4375 C-7.60882548 49.73159604 -7.60882548 49.73159604 -7.5625 46.4375 C-11.06222569 40.8379389 -16.10014006 37.953834 -21.5625 34.4375 C-26.71936784 30.99587546 -29.26276081 27.47045609 -30.5625 21.4375 C-31.30893109 15.41421576 -30.56340482 10.81843278 -27.5625 5.4375 C-20.75660668 -2.62211051 -9.68093472 -4.23995825 0 0 Z " fill="#0F6CB6" transform="translate(1996.5625,548.5625)"/>
<path d="M0 0 C4.43457924 2.77161203 7.31080941 5.80742824 9 10.875 C9.12979439 13.88103796 9.04363173 16.86441031 9 19.875 C4.38 19.875 -0.24 19.875 -5 19.875 C-5.99 17.235 -6.98 14.595 -8 11.875 C-9.32 11.875 -10.64 11.875 -12 11.875 C-12.93380961 16.40640653 -12.93380961 16.40640653 -12 20.875 C-10.23731187 21.89827256 -10.23731187 21.89827256 -8 22.875 C-5.98200223 24.11705569 -3.98337287 25.39086998 -2 26.6875 C-0.96875 27.35394531 0.0625 28.02039063 1.125 28.70703125 C5.91863157 32.32179419 8.67150455 36.00747844 10 41.875 C10.60875928 48.22959252 10.40493056 54.31520079 7 59.875 C2.77361236 64.5607776 -0.66718445 66.60608234 -6.953125 67.11328125 C-13.76518395 67.26663329 -19.50843072 67.28448667 -25 62.875 C-30.34078475 56.30172646 -30.10735213 51.03376156 -30 42.875 C-25.05 42.875 -20.1 42.875 -15 42.875 C-14.34 46.175 -13.68 49.475 -13 52.875 C-11.35 52.875 -9.7 52.875 -8 52.875 C-6.70475652 51.78145094 -6.70475652 51.78145094 -6.625 49.125 C-7.12689241 44.77526578 -8.78313304 43.77502097 -12 40.875 C-15.00978146 38.60085501 -18.07704484 36.42724708 -21.16015625 34.25390625 C-25.70849175 30.44381502 -28.70326308 26.20234518 -29.23828125 20.203125 C-29.40114221 13.44868112 -29.16964828 9.28427344 -25 3.875 C-18.42392317 -2.21990047 -8.42441402 -3.1684743 0 0 Z " fill="#0F6CB6" transform="translate(1163,548.125)"/>
<path d="M0 0 C3.85150964 2.33696251 6.16632736 5.09432681 7.4375 9.4375 C7.73638773 12.84980158 7.62588684 15.99944012 7.4375 19.4375 C2.8175 19.4375 -1.8025 19.4375 -6.5625 19.4375 C-7.2225 17.1275 -7.8825 14.8175 -8.5625 12.4375 C-10.63803648 11.8840236 -12.40615964 11.4375 -14.5625 11.4375 C-14.39483911 15.71285276 -14.16328539 17.82130985 -11.125 20.9375 C-9.95701511 21.79797196 -8.76621829 22.62776982 -7.5625 23.4375 C6.20176752 32.73827501 6.20176752 32.73827501 8.04296875 38.25 C9.36283979 45.56809684 9.40470323 53.03878512 5.4375 59.4375 C1.55647001 63.47450519 -1.68193156 66.23508168 -7.453125 66.640625 C-15.27494534 66.74976668 -20.4404788 66.5290159 -26.8125 61.75 C-31.38777957 55.70409486 -31.90955198 49.84127548 -31.5625 42.4375 C-26.6125 42.4375 -21.6625 42.4375 -16.5625 42.4375 C-15.9025 45.4075 -15.2425 48.3775 -14.5625 51.4375 C-11.09102158 52.18707157 -11.09102158 52.18707157 -7.5625 52.4375 C-7.23693007 48.93762327 -7.17889938 47.02049698 -9.140625 44.0390625 C-12.48962329 40.44159014 -16.33831214 37.95875082 -20.4296875 35.27539062 C-25.07527758 32.11020854 -28.3924937 28.7981564 -30.296875 23.328125 C-31.23605722 16.64335745 -30.96200894 10.4103424 -27.5625 4.4375 C-20.46796913 -2.65703087 -9.1489583 -4.00696858 0 0 Z " fill="#0F6CB6" transform="translate(1513.5625,548.5625)"/>
<path d="M0 0 C3.85150964 2.33696251 6.16632736 5.09432681 7.4375 9.4375 C7.73638773 12.84980158 7.62588684 15.99944012 7.4375 19.4375 C2.8175 19.4375 -1.8025 19.4375 -6.5625 19.4375 C-7.2225 17.1275 -7.8825 14.8175 -8.5625 12.4375 C-10.63803648 11.8840236 -12.40615964 11.4375 -14.5625 11.4375 C-14.6200003 14.25501449 -14.57938278 15.86005453 -13.5625 18.4375 C-10.85274951 21.18274941 -7.74358083 23.27176415 -4.5625 25.4375 C7.19306118 33.84313728 7.19306118 33.84313728 8.4375 40.4375 C8.94643912 47.37668917 9.16465792 53.42595496 5.4375 59.4375 C1.55647001 63.47450519 -1.68193156 66.23508168 -7.453125 66.640625 C-19.1757848 66.804197 -19.1757848 66.804197 -24.5625 63.4375 C-29.72951596 58.27048404 -31.65362143 53.77863565 -31.6875 46.5625 C-31.64625 45.20125 -31.605 43.84 -31.5625 42.4375 C-26.6125 42.4375 -21.6625 42.4375 -16.5625 42.4375 C-16.07421875 44.74869792 -15.5859375 47.05989583 -15.09765625 49.37109375 C-14.75497006 51.41411204 -14.75497006 51.41411204 -13.5625 52.4375 C-11.89632885 52.47813832 -10.22861905 52.480221 -8.5625 52.4375 C-7.69867572 49.68043584 -7.69867572 49.68043584 -7.5625 46.4375 C-10.84466585 41.34848527 -15.47174772 38.5270938 -20.4296875 35.27539062 C-25.07527758 32.11020854 -28.3924937 28.7981564 -30.296875 23.328125 C-31.23605722 16.64335745 -30.96200894 10.4103424 -27.5625 4.4375 C-20.46796913 -2.65703087 -9.1489583 -4.00696858 0 0 Z " fill="#0F6CB6" transform="translate(1431.5625,548.5625)"/>
<path d="M0 0 C4.52733002 2.68392349 6.79307631 6.44172892 8.4375 11.375 C8.56531786 14.04894964 8.48141871 16.69595857 8.4375 19.375 C3.4875 19.375 -1.4625 19.375 -6.5625 19.375 C-7.2225 16.735 -7.8825 14.095 -8.5625 11.375 C-10.2125 11.705 -11.8625 12.035 -13.5625 12.375 C-13.68080086 15.27337114 -13.68259625 16.75632749 -12.5625 19.375 C-9.50416789 22.13046816 -6.05006343 24.20406714 -2.5625 26.375 C-1.06865352 27.37422841 0.41216666 28.39339591 1.875 29.4375 C2.49246094 29.86160156 3.10992188 30.28570313 3.74609375 30.72265625 C7.65778027 34.54400359 8.82092535 38.80772282 8.95703125 44.18652344 C8.95058594 44.8674707 8.94414063 45.54841797 8.9375 46.25 C8.93105469 46.95672852 8.92460938 47.66345703 8.91796875 48.39160156 C8.74489442 53.32649724 8.12743424 57.00319368 5.03125 60.890625 C-0.78779571 66.31032444 -6.60433542 67.02481086 -14.43359375 66.76171875 C-20.27404337 66.03986543 -23.97570267 64.04317155 -28 59.8125 C-31.53977034 54.29045827 -30.6309976 48.74527644 -30.5625 42.375 C-25.6125 42.375 -20.6625 42.375 -15.5625 42.375 C-14.9025 45.675 -14.2425 48.975 -13.5625 52.375 C-11.9125 52.375 -10.2625 52.375 -8.5625 52.375 C-7.23359616 51.2713377 -7.23359616 51.2713377 -7.4375 48.5 C-7.41873134 45.34287587 -7.41873134 45.34287587 -8.5625 42.375 C-10.35254409 41.35668576 -10.35254409 41.35668576 -12.5625 40.375 C-26.01238864 31.47522272 -26.01238864 31.47522272 -29.5625 24.375 C-29.73853147 21.96250308 -29.82994968 19.54349105 -29.875 17.125 C-29.91238281 15.82046875 -29.94976562 14.5159375 -29.98828125 13.171875 C-29.3721181 7.67728248 -27.03202844 4.70115981 -23 1.0625 C-16.74644732 -3.26688262 -6.82905438 -3.10528699 0 0 Z " fill="#0F6CB6" transform="translate(515.5625,548.625)"/>
<path d="M0 0 C11.88 0 23.76 0 36 0 C36 4.62 36 9.24 36 14 C29.4 14 22.8 14 16 14 C16 17.63 16 21.26 16 25 C21.94 25 27.88 25 34 25 C34 29.62 34 34.24 34 39 C28.06 39 22.12 39 16 39 C16 43.29 16 47.58 16 52 C22.6 52 29.2 52 36 52 C36 56.62 36 61.24 36 66 C24.12 66 12.24 66 0 66 C0 44.22 0 22.44 0 0 Z " fill="#0F6CB6" transform="translate(1878,548)"/>
<path d="M0 0 C11.88 0 23.76 0 36 0 C36 4.62 36 9.24 36 14 C29.4 14 22.8 14 16 14 C16 17.63 16 21.26 16 25 C21.94 25 27.88 25 34 25 C34 29.62 34 34.24 34 39 C28.06 39 22.12 39 16 39 C16 43.29 16 47.58 16 52 C22.6 52 29.2 52 36 52 C36 56.62 36 61.24 36 66 C24.12 66 12.24 66 0 66 C0 44.22 0 22.44 0 0 Z " fill="#0F6CB6" transform="translate(1836,548)"/>
<path d="M0 0 C11.88 0 23.76 0 36 0 C36 4.62 36 9.24 36 14 C29.4 14 22.8 14 16 14 C16 17.63 16 21.26 16 25 C21.94 25 27.88 25 34 25 C34 29.62 34 34.24 34 39 C28.06 39 22.12 39 16 39 C16 43.29 16 47.58 16 52 C22.6 52 29.2 52 36 52 C36 56.62 36 61.24 36 66 C24.12 66 12.24 66 0 66 C0 44.22 0 22.44 0 0 Z " fill="#0F6CB6" transform="translate(1627,548)"/>
<path d="M0 0 C11.88 0 23.76 0 36 0 C36 4.62 36 9.24 36 14 C29.4 14 22.8 14 16 14 C16 17.63 16 21.26 16 25 C21.94 25 27.88 25 34 25 C34 29.62 34 34.24 34 39 C28.06 39 22.12 39 16 39 C16 43.29 16 47.58 16 52 C22.6 52 29.2 52 36 52 C36 56.62 36 61.24 36 66 C24.12 66 12.24 66 0 66 C0 44.22 0 22.44 0 0 Z " fill="#0F6CB6" transform="translate(650,548)"/>
<path d="M0 0 C11.55 0 23.1 0 35 0 C35 4.62 35 9.24 35 14 C28.4 14 21.8 14 15 14 C15 17.63 15 21.26 15 25 C21.27 25 27.54 25 34 25 C34 29.62 34 34.24 34 39 C27.73 39 21.46 39 15 39 C15 43.29 15 47.58 15 52 C21.6 52 28.2 52 35 52 C35 56.62 35 61.24 35 66 C23.45 66 11.9 66 0 66 C0 44.22 0 22.44 0 0 Z " fill="#0F6CB6" transform="translate(1250,548)"/>
<path d="M0 0 C11.88 0 23.76 0 36 0 C36 4.62 36 9.24 36 14 C29.4 14 22.8 14 16 14 C16 17.63 16 21.26 16 25 C22.27 25 28.54 25 35 25 C35 29.29 35 33.58 35 38 C28.73 38 22.46 38 16 38 C16 47.24 16 56.48 16 66 C10.72 66 5.44 66 0 66 C0 44.22 0 22.44 0 0 Z " fill="#0F6CB6" transform="translate(844,548)"/>
<path d="M0 0 C13.2 0 26.4 0 40 0 C40 4.62 40 9.24 40 14 C36.04 14 32.08 14 28 14 C28 31.16 28 48.32 28 66 C22.72 66 17.44 66 12 66 C12 48.84 12 31.68 12 14 C8.04 14 4.08 14 0 14 C0 9.38 0 4.76 0 0 Z " fill="#0F6CB6" transform="translate(1441,548)"/>
<path d="M0 0 C13.2 0 26.4 0 40 0 C40 4.62 40 9.24 40 14 C36.04 14 32.08 14 28 14 C28 31.16 28 48.32 28 66 C22.72 66 17.44 66 12 66 C12 48.84 12 31.68 12 14 C8.04 14 4.08 14 0 14 C0 9.38 0 4.76 0 0 Z " fill="#0F6CB6" transform="translate(1336,548)"/>
<path d="M0 0 C5.28 0 10.56 0 16 0 C16 21.78 16 43.56 16 66 C10.72 66 5.44 66 0 66 C0 44.22 0 22.44 0 0 Z " fill="#0F6CB6" transform="translate(1764,548)"/>
<path d="M0 0 C5.28 0 10.56 0 16 0 C16 21.78 16 43.56 16 66 C10.72 66 5.44 66 0 66 C0 44.22 0 22.44 0 0 Z " fill="#0F6CB6" transform="translate(1379,548)"/>
<path d="M0 0 C5.28 0 10.56 0 16 0 C16 21.78 16 43.56 16 66 C10.72 66 5.44 66 0 66 C0 44.22 0 22.44 0 0 Z " fill="#0F6CB6" transform="translate(1226,548)"/>
<path d="M0 0 C5.28 0 10.56 0 16 0 C16 21.78 16 43.56 16 66 C10.72 66 5.44 66 0 66 C0 44.22 0 22.44 0 0 Z " fill="#0F6CB6" transform="translate(996,548)"/>
<path d="M0 0 C5.28 0 10.56 0 16 0 C16 21.78 16 43.56 16 66 C10.72 66 5.44 66 0 66 C0 44.22 0 22.44 0 0 Z " fill="#0F6CB6" transform="translate(627,548)"/>
</svg>
