<?xml version="1.0" standalone="no"?>
<!DOCTYPE svg PUBLIC "-//W3C//DTD SVG 1.1//EN" "http://www.w3.org/Graphics/SVG/1.1/DTD/svg11.dtd">
<svg version="1.1" id="Layer_1" xmlns="http://www.w3.org/2000/svg" xmlns:xlink="http://www.w3.org/1999/xlink" x="0px" y="0px" viewBox="0 0 1296 252" style="enable-background:new 0 0 1296 252;" xml:space="preserve" width="1296" height="252">
<style type="text/css">
	.st0{fill:#FFFFFF;}
</style>
<path class="st0" d="M892.83,20.28l31.54,72.42l31.54-72.42h41.62v130.84h-33.97l-0.18-77.46l-26.32,64.58h-25.38l-26.32-64.58  v77.46h-34.16V20.28H892.83z"/>
<path class="st0" d="M796.25,121.98h45.63v28.76H762.3V20.12h33.96V121.98z"/>
<polygon class="st0" points="452.82,69.77 486.63,69.77 497.07,98.48 463.63,98.48 "/>
<polygon class="st0" points="409.36,98.74 451.46,98.74 441.91,69.98 409.36,69.98 409.36,48.15 449.72,48.15 449.72,19.39   375.4,19.39 375.4,69.02 359.75,69.02 375.4,110.63 375.4,150.01 449.72,150.01 449.72,121.26 409.36,121.26 "/>
<polygon class="st0" points="590.69,20.12 590.69,70.53 547.39,70.53 547.39,20.12 513.43,20.12 513.43,69.02 497.17,69.02   513.43,112.26 513.43,150.74 547.39,150.74 547.39,102.93 590.69,102.93 590.69,150.74 624.64,150.74 624.64,20.12 "/>
<path class="st0" d="M750.58,20.12v73.45c0,16.8-0.69,33.44-13.69,46.08c-10.91,10.74-28.06,14.55-43.31,14.55  c-15.25,0-32.4-3.81-43.31-14.55c-12.99-12.65-13.69-29.28-13.69-46.08V20.12h33.96v68.78c0,16.98,1.21,35.51,23.04,35.51  c21.83,0,23.04-18.54,23.04-35.51V20.12H750.58z"/>
<path class="st0" d="M1049.11,128.04l-9.01,22.69h-36.03l50.24-130.62h37.07l49.2,130.62h-36.21l-8.49-22.69H1049.11z   M1072.85,60.48h-0.35l-14.03,41.58h28.24L1072.85,60.48z"/>
<path class="st0" d="M1147.34,20.12h33.96l62.19,79.86h0.35V20.12h33.96v130.62h-33.96l-62.19-80.04h-0.35v80.04h-33.96V20.12z"/>
<path class="st0" d="M266.28,82.28c0,42.27-30.32,72.07-72.24,72.07c-41.92,0-72.24-29.8-72.24-72.07  c0-39.5,34.65-67.22,72.24-67.22C231.63,15.06,266.28,42.78,266.28,82.28z M157.14,82.45c0,22.52,16.63,38.98,36.9,38.98  s36.9-16.46,36.9-38.98c0-18.02-16.63-34.48-36.9-34.48S157.14,64.43,157.14,82.45z"/>
<path class="st0" d="M344.22,53c-6.24-5.2-14.21-8.66-22.52-8.66c-6.24,0-14.55,3.64-14.55,10.91c0,7.62,9.18,10.57,15.07,12.47  l8.66,2.6c18.19,5.37,32.22,14.55,32.22,35.69c0,12.99-3.12,26.33-13.51,35.17c-10.22,8.66-23.91,12.3-37.07,12.3  c-16.46,0-32.57-5.54-45.91-14.9l14.55-27.37c8.49,7.45,18.54,13.51,30.14,13.51c7.97,0,16.46-3.98,16.46-13.17  c0-9.53-13.34-12.82-20.62-14.9c-21.31-6.06-35.34-11.61-35.34-36.9c0-26.51,18.88-43.83,45.04-43.83  c13.17,0,29.28,4.16,40.88,10.74L344.22,53z"/>
<path class="st0" d="M98.17,106.24c9.11-7.04,23.93-30.69,19.01-51.11c-8.71-35.82-42.61-35.74-55.67-35.74h-32.3v64.06H18.63  l10.58,27.63v38.93h31.35c0,0-0.03-37.81,0-37.83c1.92-1.65,7-2.06,10.58,3.63c3.99,5.85,14.37,30.24,15.94,34.17h37.53  C124.61,149.98,109.03,123.68,98.17,106.24z M64.8,83.49h-3.29v-5.45V50.66v-2.01h3.29c11.09,0,23.56,2.22,23.56,17.42  C88.36,81.26,75.89,83.49,64.8,83.49z"/>
<g>
	<path class="st0" d="M124.65,191.44h7.76v45.27h-7.76V191.44z"/>
	<path class="st0" d="M153.68,191.44h8.15l19.4,32.21v-32.21h7.5v45.27h-7.63l-19.92-33.11v33.11h-7.5V191.44z"/>
	<path class="st0" d="M208.45,227.65v-5.3h7.63v4.98c0,1.81,0.65,2.46,2.39,2.46h12.29c1.75,0,2.39-0.65,2.39-2.46v-5.43   c0-2.07-0.84-2.72-2.98-3.17l-12.29-2.72c-5.43-1.23-9.31-3.17-9.31-9.31v-6.21c0-6.14,2.91-9.05,9.05-9.05h13.52   c6.14,0,9.05,2.91,9.05,9.05v4.85h-7.56v-4.53c0-1.81-0.65-2.46-2.46-2.46h-11.38c-1.81,0-2.46,0.65-2.46,2.46v4.79   c0,2.07,0.84,2.72,3.04,3.23l12.22,2.65c5.5,1.23,9.31,3.17,9.31,9.31v6.85c0,6.14-2.91,9.05-9.05,9.05H217.5   C211.35,236.71,208.45,233.8,208.45,227.65z"/>
	<path class="st0" d="M269.22,198.49h-12.87v-7.05h33.43v7.05h-12.8v38.22h-7.76V198.49z"/>
	<path class="st0" d="M307.37,191.44h7.76v45.27h-7.76V191.44z"/>
	<path class="st0" d="M345.52,198.49h-12.87v-7.05h33.43v7.05h-12.8v38.22h-7.76V198.49z"/>
	<path class="st0" d="M383.08,227.65v-36.22h7.76v35.76c0,1.75,0.65,2.39,2.46,2.39h12.81c1.75,0,2.39-0.65,2.39-2.39v-35.76h7.76   v36.22c0,6.14-2.91,9.05-9.05,9.05h-15.07C385.99,236.71,383.08,233.8,383.08,227.65z"/>
	<path class="st0" d="M446.12,198.49h-12.87v-7.05h33.44v7.05h-12.81v38.22h-7.76V198.49z"/>
	<path class="st0" d="M484.27,191.44h29.81v7.11h-22.05v11.51h18.17v6.99h-18.17v12.55h22.05v7.11h-29.81V191.44z"/>
	<path class="st0" d="M557.91,227.65v-27.16c0-6.14,2.91-9.05,9.05-9.05h15.85c6.14,0,9.05,2.91,9.05,9.05v27.16   c0,6.14-2.91,9.05-9.05,9.05h-15.85C560.82,236.71,557.91,233.8,557.91,227.65z M581.71,229.59c1.75,0,2.39-0.65,2.39-2.39v-26.26   c0-1.75-0.65-2.39-2.39-2.39h-13.58c-1.81,0-2.46,0.65-2.46,2.39v26.26c0,1.75,0.64,2.39,2.46,2.39H581.71z"/>
	<path class="st0" d="M612.09,191.44h29.81v7.11h-22.05v11.9h18.17v7.05h-18.17v19.21h-7.76V191.44z"/>
	<path class="st0" d="M693.3,198.49h-12.87v-7.05h33.44v7.05h-12.81v38.22h-7.76V198.49z"/>
	<path class="st0" d="M731.45,191.44h29.81v7.11h-22.05v11.51h18.17v6.99h-18.17v12.55h22.05v7.11h-29.81V191.44z"/>
	<path class="st0" d="M778.71,227.65v-27.16c0-6.14,2.91-9.05,9.05-9.05h14.49c6.14,0,9.05,2.91,9.05,9.05v6.53h-7.76v-6.08   c0-1.75-0.64-2.39-2.39-2.39h-12.22c-1.81,0-2.46,0.65-2.46,2.39v26.26c0,1.75,0.64,2.39,2.46,2.39h12.22   c1.75,0,2.39-0.65,2.39-2.39v-6.08h7.76v6.53c0,6.08-2.91,9.05-9.05,9.05h-14.49C781.62,236.71,778.71,233.73,778.71,227.65z"/>
	<path class="st0" d="M830.7,191.44h7.76V210h18.37v-18.56h7.76v45.27h-7.76v-19.6h-18.37v19.6h-7.76V191.44z"/>
	<path class="st0" d="M885.92,191.44h8.15l19.4,32.21v-32.21h7.5v45.27h-7.63l-19.92-33.11v33.11h-7.5V191.44z"/>
	<path class="st0" d="M941.06,227.65v-27.16c0-6.14,2.91-9.05,9.05-9.05h15.85c6.14,0,9.05,2.91,9.05,9.05v27.16   c0,6.14-2.91,9.05-9.05,9.05h-15.85C943.98,236.71,941.06,233.8,941.06,227.65z M964.87,229.59c1.75,0,2.39-0.65,2.39-2.39v-26.26   c0-1.75-0.65-2.39-2.39-2.39h-13.58c-1.81,0-2.46,0.65-2.46,2.39v26.26c0,1.75,0.64,2.39,2.46,2.39H964.87z"/>
	<path class="st0" d="M995.25,191.44h7.76v38.16h20.44v7.11h-28.2V191.44z"/>
	<path class="st0" d="M1039.28,227.65v-27.16c0-6.14,2.91-9.05,9.05-9.05h15.85c6.14,0,9.05,2.91,9.05,9.05v27.16   c0,6.14-2.91,9.05-9.05,9.05h-15.85C1042.19,236.71,1039.28,233.8,1039.28,227.65z M1063.08,229.59c1.75,0,2.39-0.65,2.39-2.39   v-26.26c0-1.75-0.65-2.39-2.39-2.39h-13.58c-1.81,0-2.46,0.65-2.46,2.39v26.26c0,1.75,0.64,2.39,2.46,2.39H1063.08z"/>
	<path class="st0" d="M1092.3,227.65v-27.16c0-6.14,2.91-9.05,9.05-9.05h15.07c6.14,0,9.05,2.91,9.05,9.05v5.37h-7.76v-4.92   c0-1.75-0.65-2.39-2.46-2.39h-12.74c-1.81,0-2.46,0.65-2.46,2.39v26.26c0,1.75,0.64,2.39,2.46,2.39h12.74   c1.81,0,2.46-0.65,2.46-2.39v-8.09h-9.64v-6.85h17.4v15.39c0,6.14-2.91,9.05-9.05,9.05h-15.07   C1095.21,236.71,1092.3,233.8,1092.3,227.65z"/>
	<path class="st0" d="M1154.83,221.06l-15.2-29.62h8.41l10.74,21.6l10.73-21.6h8.28l-15.2,29.62v15.65h-7.76V221.06z"/>
</g>
</svg>