<?xml version="1.0" encoding="UTF-8"?>
<svg version="1.1" xmlns="http://www.w3.org/2000/svg" width="741" height="1016">
    <path d="M0 0 C1.17964665 3.53893996 0.74476994 4.94921995 -0.109375 8.5390625 C-0.36823486 9.66393066 -0.62709473 10.78879883 -0.89379883 11.94775391 C-1.17634521 13.16124512 -1.4588916 14.37473633 -1.75 15.625 C-19.02237891 93.29341282 -3.73301769 174.55472523 38.55810547 241.7578125 C42.148078 247.34032312 45.98554466 252.71635916 50 258 C50.44730469 258.59006836 50.89460937 259.18013672 51.35546875 259.78808594 C56.62638256 266.70154642 62.0703479 273.37679145 67.9609375 279.77734375 C69.81250295 281.79562103 71.59833 283.85349135 73.375 285.9375 C80.35525958 293.91493952 87.8802631 301.13420107 96.16796875 307.73828125 C100.20384614 310.96141644 104.13380893 314.30647937 108.078125 317.640625 C110.72987604 319.91300487 110.72987604 319.91300487 112.84130859 321.04345703 C115.76243636 322.75558139 117.61039952 323.98435185 118.84960938 327.21484375 C119.41564307 329.93097611 119.79622883 332.62019693 120.125 335.375 C120.4298173 337.36967877 120.74234495 339.36319424 121.0625 341.35546875 C121.21589844 342.32532715 121.36929688 343.29518555 121.52734375 344.29443359 C124.47690445 361.17823093 133.56501591 378.36728042 145 391 C145.67289062 391.81339844 146.34578125 392.62679688 147.0390625 393.46484375 C164.13945081 413.64330195 189.93876689 425.93312561 216 429 C246.17622913 431.13017114 275.64508138 424.31887467 299.0625 404.375 C301.07006273 402.61090572 303.03613928 400.81365041 305 399 C305.66257812 398.40703125 306.32515625 397.8140625 307.0078125 397.203125 C309.75943692 394.61787787 311.91599188 392.1327541 313.94848633 388.92089844 C317.55110342 383.2926976 320.67278746 378.694672 327.5050354 377.02006531 C330.26198674 376.52808544 333.01248533 376.14693509 335.79788208 375.85653687 C338.82960927 375.53777255 341.83798505 375.08889963 344.85365295 374.64585876 C346.38368847 374.42137122 347.91458144 374.20265065 349.4462738 373.98976135 C398.08041664 367.12744443 446.91310717 341.60633335 484 310 C485.08397548 309.10076639 486.16864879 308.20237351 487.25390625 307.3046875 C499.11000679 297.41902332 510.37413699 286.78952547 519.921875 274.625 C521.30354492 272.87973273 522.73140698 271.17003463 524.203125 269.5 C537.69678128 254.12974252 548.69880197 236.17497216 558 218 C558.65427979 216.73615479 558.65427979 216.73615479 559.32177734 215.44677734 C569.55597879 195.49715886 577.04419474 174.58699625 583 153 C583.66 153.33 584.32 153.66 585 154 C585.61923366 156.70295492 586.09805784 159.32442293 586.5 162.0625 C586.62673096 162.91320068 586.75346191 163.76390137 586.8840332 164.64038086 C590.80958708 192.16897999 591.23154312 220.28914155 589 248 C589.75619629 248.22139648 590.51239258 248.44279297 591.29150391 248.67089844 C594.73919848 249.68676061 598.18204031 250.71820974 601.625 251.75 C602.81480469 252.09804688 604.00460937 252.44609375 605.23046875 252.8046875 C614.21771345 255.51592333 620.13781231 257.5361918 625 266 C631.99673711 286.99021133 624.13718742 314.91436632 614.90283203 334.22705078 C610.91381046 342.06054853 605.04679355 349.97660323 597 354 C589.94809129 354.45972862 583.54731777 353.03733045 576.6875 351.5 C574.54613889 351.02867126 572.40423413 350.55980369 570.26171875 350.09375 C569.32287842 349.88427734 568.38403809 349.67480469 567.41674805 349.45898438 C564.91877152 348.90670847 564.91877152 348.90670847 562 349 C561.73485596 349.58152832 561.46971191 350.16305664 561.1965332 350.76220703 C551.79197498 371.24662941 540.79843064 390.4523872 528 409 C529.41738489 412.25207092 531.12526412 414.31361067 533.6875 416.75 C537.69128844 420.65932519 541.41836807 424.70204168 545 429 C545.804375 429.9075 546.60875 430.815 547.4375 431.75 C550.1894068 437.47396614 549.85550353 443.47104794 548.375 449.578125 C544.14870413 461.2759082 535.90334913 470.76695323 527.38037109 479.57275391 C526.0506623 480.9476173 524.7378495 482.33876054 523.42578125 483.73046875 C513.93245842 493.58146779 499.36592898 505.76313444 484.9375 506.1875 C476.72595694 505.39283454 471.71189344 499.38959225 466 494 C464.57024285 492.69976789 463.13342159 491.40723235 461.6875 490.125 C461.09324219 489.59132813 460.49898437 489.05765625 459.88671875 488.5078125 C457.70933939 486.76771222 455.4139858 485.38773022 453 484 C451.52853516 485.03447266 451.52853516 485.03447266 450.02734375 486.08984375 C437.09011012 495.12632259 423.9084765 503.09388002 409.9375 510.4375 C408.94935303 510.95820068 407.96120605 511.47890137 406.94311523 512.01538086 C406.00153564 512.50401611 405.05995605 512.99265137 404.08984375 513.49609375 C403.25316162 513.93107178 402.41647949 514.3660498 401.55444336 514.81420898 C398.75967763 516.11155938 395.93721983 517.07618621 393 518 C393.18175781 518.80630859 393.36351562 519.61261719 393.55078125 520.44335938 C394.228461 523.46859127 394.8984544 526.49540008 395.56347656 529.5234375 C395.99223374 531.46483463 396.42963245 533.40431681 396.8671875 535.34375 C400.24092261 550.76653906 400.24092261 550.76653906 398.0390625 556.50390625 C387.23924784 572.22628836 365.28939737 579.48291647 347.1875 582.97265625 C334.47823212 585.22856073 321.3067263 587.05023922 309 582 C304.13499013 578.51628564 302.14286926 576.05373442 300.2265625 570.23828125 C300.01309174 569.60641403 299.79962097 568.97454681 299.5796814 568.3235321 C298.90984757 566.32538347 298.26755069 564.31956574 297.625 562.3125 C297.17228174 560.95450725 296.71786935 559.59707805 296.26171875 558.24023438 C293 548.43572187 293 548.43572187 293 546 C292.17387207 546.09740479 292.17387207 546.09740479 291.33105469 546.19677734 C283.64861662 547.03913628 275.97193632 547.37097955 268.25 547.625 C267.57379608 547.64745789 266.89759216 547.66991577 266.20089722 547.6930542 C251.40984827 548.16573694 236.68225603 547.98910013 222 546 C221.86464844 546.63421875 221.72929687 547.2684375 221.58984375 547.921875 C219.9848792 554.87992488 217.93570415 561.6626979 215.6875 568.4375 C215.28035767 569.73349121 215.28035767 569.73349121 214.86499023 571.05566406 C212.92435456 576.74819538 211.13038262 579.75679832 206 583 C191.27520719 589.05128472 170.82381992 585.54647206 156 581 C155.26281738 580.77505859 154.52563477 580.55011719 153.76611328 580.31835938 C139.89643394 575.97154858 125.38670251 570.48328554 116.9375 557.9375 C115.10919948 552.20882505 116.08037961 546.74822057 117.3125 540.97265625 C117.58320313 539.68681641 117.85390625 538.40097656 118.1328125 537.07617188 C118.42172149 535.73824809 118.7107859 534.40035786 119 533.0625 C119.28970851 531.69740257 119.57877693 530.33216912 119.8671875 528.96679688 C120.57184951 525.64314106 121.28297529 522.32100673 122 519 C121.21254395 518.76869385 121.21254395 518.76869385 120.40917969 518.53271484 C113.98754758 516.53278708 108.1873036 513.76327449 102.25 510.625 C100.7640332 509.84467407 100.7640332 509.84467407 99.24804688 509.04858398 C86.35735343 502.18275512 73.80233597 494.61380166 62 486 C58.91037642 487.38331165 56.72300109 488.99700587 54.28515625 491.3359375 C53.59873047 491.98820312 52.91230469 492.64046875 52.20507812 493.3125 C51.49802734 493.993125 50.79097656 494.67375 50.0625 495.375 C36.43377154 508.41660634 36.43377154 508.41660634 27.5859375 508.2734375 C8.44673058 506.24965429 -9.59926473 488.51304955 -21.42089844 474.29052734 C-28.57049043 465.26145546 -37.35986962 453.13258677 -36 441 C-33.98994928 434.8231288 -30.63561019 431.01844195 -26.125 426.4375 C-23.73901121 423.96862949 -21.36207058 421.49177173 -19 419 C-18.47374023 418.45230957 -17.94748047 417.90461914 -17.40527344 417.34033203 C-15.81213272 415.64760822 -15.81213272 415.64760822 -14 413 C-14.3623672 409.95061701 -15.5565738 407.89315752 -17.30078125 405.41015625 C-17.77733154 404.71921875 -18.25388184 404.02828125 -18.74487305 403.31640625 C-19.52084839 402.20072266 -19.52084839 402.20072266 -20.3125 401.0625 C-30.91966809 385.46419346 -39.79629969 368.96674383 -48 352 C-49.05743408 352.21934204 -49.05743408 352.21934204 -50.13623047 352.44311523 C-53.38142967 353.11315186 -56.62817927 353.77536746 -59.875 354.4375 C-61.53789063 354.78264648 -61.53789063 354.78264648 -63.234375 355.13476562 C-80.78188745 358.69587845 -80.78188745 358.69587845 -86.1875 357 C-104.33382157 344.09594911 -110.75216344 319.25884588 -114.46484375 298.38671875 C-115.91338176 287.53260517 -116.62807725 274.18794908 -110.40698242 264.59912109 C-105.33965612 258.83979656 -94.46263084 257.03666103 -87.4375 254.75 C-86.33341797 254.38648438 -85.22933594 254.02296875 -84.09179688 253.6484375 C-81.39586289 252.76146355 -78.69835596 251.87956738 -76 251 C-76.1065818 249.72103348 -76.1065818 249.72103348 -76.21531677 248.41622925 C-76.86882544 240.05287901 -77.13520813 231.76930168 -77.09765625 223.3828125 C-77.0962413 222.15964325 -77.09482635 220.936474 -77.09336853 219.67623901 C-77.08783678 215.82579955 -77.07529771 211.97542145 -77.0625 208.125 C-77.05747616 205.49088627 -77.05291481 202.85677161 -77.04882812 200.22265625 C-77.03788984 193.81508375 -77.0212215 187.40754626 -77 181 C-77.88260498 180.72325439 -78.76520996 180.44650879 -79.67456055 180.16137695 C-82.96810077 179.12057059 -86.2565993 178.06607797 -89.54272461 177.00219727 C-90.96186379 176.54584346 -92.38275736 176.09490649 -93.80541992 175.6496582 C-95.85828715 175.00611489 -97.90391138 174.34290772 -99.94921875 173.67578125 C-101.17987061 173.28302002 -102.41052246 172.89025879 -103.6784668 172.4855957 C-108.75662406 170.21432875 -111.32101543 167.35945488 -113.78515625 162.42578125 C-115.54976718 157.1020609 -115.49118867 151.74683369 -115.4375 146.1875 C-115.42992676 145.08672119 -115.42235352 143.98594238 -115.41455078 142.85180664 C-114.99933822 121.95024881 -108.76980731 95.76930922 -93.8125 80.3125 C-89.04371324 75.77681076 -85.42940564 74.64002829 -78.94238281 74.7734375 C-73.33630493 75.20510364 -67.87438203 76.36579077 -62.375 77.5 C-61.18003906 77.73847656 -59.98507813 77.97695313 -58.75390625 78.22265625 C-55.8341135 78.8066148 -52.9163682 79.39921409 -50 80 C-49.73485596 79.41847168 -49.46971191 78.83694336 -49.1965332 78.23779297 C-36.72599102 51.07523551 -21.40286445 21.40286445 0 0 Z "
          fill="#FFFFFF" transform="translate(115,431)"/>
    <path d="M0 0 C1.51587239 0.40930922 3.03212532 0.81721129 4.54872131 1.22383118 C7.80414672 2.09960158 11.05688668 2.98452061 14.30780029 3.87689209 C19.49244958 5.2999348 24.68242024 6.7028044 29.87353516 8.10205078 C35.36758322 9.58373565 40.86133916 11.06643947 46.35333252 12.5557251 C59.98738044 16.25145425 73.63704155 19.88518691 87.296875 23.484375 C88.75798549 23.86948966 88.75798549 23.86948966 90.24861336 24.26238441 C97.92407517 26.28520814 105.60020203 28.30550346 113.276371 30.32564163 C123.52061261 33.02204657 133.76299221 35.72492537 143.99749088 38.45811176 C147.55314666 39.40672146 151.11012069 40.34889549 154.67297363 41.2701416 C158.21948715 42.18809086 161.7604679 43.12488577 165.30078125 44.06640625 C166.29786102 44.31772308 167.2949408 44.56903992 168.32223511 44.82797241 C174.66647961 46.54538439 178.44358361 48.67721352 181.98046875 54.46484375 C183.47819081 61.05482081 181.75746829 68.30966911 178.60546875 74.21484375 C173.52045607 80.04400463 173.52045607 80.04400463 169.72265625 80.3828125 C165.77253029 80.41722126 162.28886712 80.25320891 158.48046875 79.15234375 C154.26928143 78.13350811 151.76501188 78.03761456 147.60546875 79.21484375 C141.57870814 83.55632043 140.68302564 89.66069468 138.9375 96.59375 C138.4212985 98.55215151 137.90508314 100.51054942 137.38839817 102.46882343 C136.83374487 104.5830891 136.28731234 106.69934078 135.74273682 108.81622314 C134.60002472 113.25088335 133.42501181 117.67657519 132.24365234 122.10107422 C129.81423095 131.21023822 127.40922556 140.32574543 125.0072403 149.44217682 C123.01446802 157.00337052 121.01794856 164.56357664 119.02231598 172.12401581 C118.2280879 175.13319563 117.43407517 178.14243222 116.64007568 181.15167236 C112.79606814 195.71803051 108.9404084 210.28128054 105.07954597 224.8431797 C104.13884315 228.39131614 103.19834627 231.93950711 102.25791931 235.48771667 C101.63784919 237.8271793 101.01777779 240.16664158 100.39770508 242.50610352 C100.09307437 243.65544593 99.78844366 244.80478834 99.47458172 245.98895931 C97.95306179 251.72907229 96.43098288 257.46903608 94.9078064 263.20870972 C93.4716911 268.62038796 92.03697743 274.03243589 90.60328865 279.44475746 C90.07318042 281.44488115 89.54253442 283.4448624 89.01132011 285.44469261 C88.28366411 288.18427935 87.55786704 290.92435208 86.83251953 293.66455078 C86.61972697 294.46386489 86.40693441 295.263179 86.1876936 296.08671474 C85.21197899 299.78034128 84.29573091 303.4544534 83.60546875 307.21484375 C84.06284424 307.53122803 84.52021973 307.8476123 84.99145508 308.17358398 C97.01506275 316.51363251 108.37417581 325.14941232 119.1953125 335.02734375 C121.53128129 337.14750992 123.9087375 339.21181685 126.29296875 341.27734375 C129.66831932 344.28222901 132.70259207 347.3976341 135.61328125 350.8515625 C137.14741655 352.67146811 138.70255759 354.45739314 140.28515625 356.234375 C151.98367401 369.46341336 161.94483784 383.83495318 170.60546875 399.21484375 C170.99943848 399.90707031 171.3934082 400.59929687 171.79931641 401.3125 C193.42867636 439.65039049 204.11019876 482.94240971 203.91796875 526.83984375 C203.91523453 528.14645462 203.91523453 528.14645462 203.91244507 529.47946167 C203.86301864 543.56889275 203.18939396 557.33311791 200.60546875 571.21484375 C200.42854492 572.17052246 200.25162109 573.12620117 200.06933594 574.11083984 C192.01625631 616.26085334 174.74752519 659.98011768 145.60546875 692.21484375 C144.61546875 692.87484375 143.62546875 693.53484375 142.60546875 694.21484375 C142.72591553 693.5607251 142.8463623 692.90660645 142.97045898 692.23266602 C144.25557097 685.21445437 145.48405477 678.18830404 146.66796875 671.15234375 C146.84134766 670.14107422 147.01472656 669.12980469 147.19335938 668.08789062 C157.05417138 609.41417017 142.31990144 546.43708642 107.85107422 497.94384766 C101.75169732 489.47740564 95.29423958 481.55922595 88.15234375 473.94921875 C85.39055267 470.98410563 82.74800771 467.93678906 80.140625 464.8359375 C78.65134451 463.08906685 78.65134451 463.08906685 76.41796875 462.0625 C74.23397546 459.83614477 74.34149048 459.23993265 74.3203125 456.21484375 C74.38080968 454.54762262 74.45600889 452.88089422 74.54296875 451.21484375 C75.28923042 420.2253461 64.12171797 392.67421799 43.03295898 370.19067383 C25.57467179 352.20982566 0.00961687 339.4905523 -25.22436523 338.05371094 C-44.5150327 337.72458154 -44.5150327 337.72458154 -63.39453125 341.21484375 C-64.59464844 341.54355469 -65.79476562 341.87226563 -67.03125 342.2109375 C-97.00636706 351.26298434 -118.6555487 371.32949095 -133.79296875 398.2109375 C-135.4630741 401.14166962 -135.4630741 401.14166962 -136.39453125 404.21484375 C-138.39379883 405.07104492 -138.39379883 405.07104492 -141.0390625 405.7578125 C-142.01544678 406.02223145 -142.99183105 406.28665039 -143.99780273 406.55908203 C-145.05684814 406.8373584 -146.11589355 407.11563477 -147.20703125 407.40234375 C-173.90370316 414.8539553 -199.14195258 426.57104799 -221.39453125 443.21484375 C-222.52860203 444.04302873 -223.66271593 444.87115468 -224.796875 445.69921875 C-232.84411091 451.65789527 -240.1783092 458.28513836 -247.39453125 465.21484375 C-247.90902832 465.70210938 -248.42352539 466.189375 -248.95361328 466.69140625 C-256.94020492 474.27499311 -263.81250483 482.39537091 -270.39453125 491.21484375 C-270.80912598 491.75802246 -271.2237207 492.30120117 -271.65087891 492.86083984 C-290.11448215 517.07648119 -303.25810563 545.64493204 -310.39453125 575.21484375 C-311.05453125 575.21484375 -311.71453125 575.21484375 -312.39453125 575.21484375 C-312.88065294 572.13256698 -313.35705794 569.0488565 -313.83203125 565.96484375 C-313.96673828 565.11148438 -314.10144531 564.258125 -314.24023438 563.37890625 C-322.61195197 508.65645954 -311.36930632 451.7904021 -285.39453125 403.21484375 C-285.04422852 402.55291016 -284.69392578 401.89097656 -284.33300781 401.20898438 C-279.06496615 391.31661503 -273.16357478 382.14260873 -266.39453125 373.21484375 C-265.95351074 372.62960937 -265.51249023 372.044375 -265.05810547 371.44140625 C-258.62288959 362.9446023 -251.79393969 354.89138359 -244.39453125 347.21484375 C-243.51958008 346.30702148 -243.51958008 346.30702148 -242.62695312 345.38085938 C-234.95001435 337.46376611 -227.19398534 329.89568783 -218.39453125 323.21484375 C-217.84361816 322.79283691 -217.29270508 322.37083008 -216.72509766 321.93603516 C-173.85639387 289.22880189 -123.26944091 270.15760455 -69.39453125 267.21484375 C-69.16020889 266.19625778 -68.92588654 265.17767181 -68.6844635 264.1282196 C-66.2092787 253.44512068 -63.51348162 242.83363134 -60.703125 232.234375 C-60.24417174 230.49652609 -59.78541753 228.75862461 -59.32684326 227.02067566 C-58.08918335 222.33244402 -56.84868086 217.64496893 -55.60760117 212.9576416 C-54.29515126 207.99887637 -52.98528058 203.03942981 -51.67504883 198.08007812 C-49.14389748 188.50128312 -46.61012043 178.92318458 -44.07532215 169.34535408 C-41.94061766 161.27913221 -39.80695013 153.21263659 -37.67382812 145.14599609 C-33.97763841 131.16866059 -30.28026537 117.19163846 -26.58203125 103.21484375 C-26.28555065 102.09428715 -25.98907005 100.97373055 -25.68360519 99.81921768 C-23.97060375 93.34505648 -22.25712038 86.87102318 -20.54291534 80.39718056 C-20.02225331 78.43064299 -19.50172593 76.46406977 -18.98134613 74.4974575 C-18.26554772 71.79247085 -17.54928066 69.08760889 -16.83276367 66.3828125 C-16.61489511 65.55977536 -16.39702656 64.73673822 -16.17255592 63.88876057 C-14.78601873 58.66065745 -13.36930814 53.44188052 -11.90522766 48.23486328 C-10.76640297 43.73033167 -10.91222138 41.19875588 -12.95703125 37.02734375 C-16.3257645 33.14034385 -19.87282038 31.91555929 -24.671875 30.58203125 C-30.42955049 28.9150836 -33.24500878 27.43124035 -36.39453125 22.21484375 C-38.60118755 14.81605498 -36.40747933 8.16213077 -33.39453125 1.21484375 C-26.9373481 -9.39795231 -9.48657897 -2.63835598 0 0 Z M14.60546875 56.21484375 C11.60627048 59.60883461 10.56227828 63.16962729 9.47436523 67.46728516 C9.28107258 68.20003851 9.08777992 68.93279186 8.88862991 69.68774986 C8.2426764 72.14513906 7.60974807 74.60569894 6.9765625 77.06640625 C6.51449336 78.83387782 6.05156535 80.60112504 5.58784485 82.36816406 C4.58840628 86.18333968 3.59457813 89.99991641 2.60510254 93.81768799 C1.03282218 99.88382213 -0.55115321 105.94685965 -2.13769531 112.00927734 C-2.68382046 114.09646264 -3.22993239 116.1836514 -3.77603149 118.27084351 C-4.05017506 119.31856304 -4.32431862 120.36628258 -4.60676956 121.44575119 C-5.45412885 124.68605753 -6.30024525 127.92668631 -7.14608765 131.16738892 C-11.26553825 146.94395989 -15.43234123 162.70758024 -19.625 178.46484375 C-19.92063402 179.57631145 -20.21626804 180.68777916 -20.52086067 181.8329277 C-23.12796033 191.63429552 -25.73686367 201.4351821 -28.34915161 211.23516846 C-29.70267049 216.31336072 -31.05382835 221.39217619 -32.40345192 226.47140503 C-32.89711486 228.3274426 -33.39165086 230.18324824 -33.88718224 232.03878784 C-35.41440743 237.7578829 -36.91706852 243.48269766 -38.39453125 249.21484375 C-38.60708054 250.03031425 -38.81962982 250.84578476 -39.03862 251.68596649 C-39.6543122 254.06540948 -40.25308736 256.44845634 -40.84667969 258.83349609 C-41.03417912 259.55120996 -41.22167854 260.26892384 -41.41485977 261.00838661 C-41.97479016 263.18943138 -41.97479016 263.18943138 -42.39453125 266.21484375 C-39.88771505 268.72165995 -38.00289437 269.03763729 -34.58203125 269.90234375 C-33.54433594 270.17433594 -32.50664062 270.44632813 -31.4375 270.7265625 C-28.34542907 271.22272279 -26.40518022 270.90632882 -23.39453125 270.21484375 C-17.54770567 250.4448022 -12.40558503 230.48342014 -7.17074203 210.54517365 C-5.04849382 202.46496692 -2.9211602 194.38609611 -0.79456139 186.30703354 C-0.24802732 184.23059225 0.29841878 182.15412781 0.84477806 180.07764053 C4.86728464 164.79023163 8.90964755 149.50819987 12.96875 134.23046875 C13.47900274 132.30933874 13.98924655 130.38820635 14.4994812 128.46707153 C16.67976901 120.25897295 18.86136386 112.05122732 21.04708576 103.84457397 C21.93880965 100.49473046 22.82882784 97.14443536 23.71843529 93.79402924 C24.1263471 92.2593417 24.53500479 90.72485216 24.94451332 89.1905899 C27.3349166 80.2339172 29.58947297 71.264441 31.60546875 62.21484375 C27.83656262 59.85962665 24.63682837 58.52977289 20.29296875 57.52734375 C18.69001953 57.15029297 18.69001953 57.15029297 17.0546875 56.765625 C16.24644531 56.58386719 15.43820312 56.40210938 14.60546875 56.21484375 Z "
          fill="#FFFFFF" transform="translate(457.39453125,3.78515625)"/>
    <path d="M0 0 C19.54925408 15.99738675 31.4344499 36.86117225 34 62 C35.73703508 85.76360493 28.23116312 108.48550868 12.94921875 126.765625 C12.30597656 127.50296875 11.66273438 128.2403125 11 129 C10.47019531 129.61359375 9.94039062 130.2271875 9.39453125 130.859375 C-4.74175844 146.07770168 -26.0063224 155.25646582 -46.55859375 156.37890625 C-71.61158883 157.16928107 -92.9718436 150.46194879 -112 134 C-112.66128906 133.43925781 -113.32257813 132.87851562 -114.00390625 132.30078125 C-130.10168733 117.47289473 -139.08975011 95.33820502 -140.16015625 73.7734375 C-140.79353597 47.6121014 -131.64569292 25.59493992 -113.8125 6.4375 C-83.04684967 -23.07807876 -33.86895246 -25.48191823 0 0 Z "
          fill="#FFFFFF" transform="translate(475,382)"/>
    <path d="M0 0 C0.65355469 0.46792969 1.30710937 0.93585937 1.98046875 1.41796875 C17.96797284 13.75986621 28.10023472 35.46410721 31 55 C32.64768196 81.19473419 28.08351451 104.5752194 10.78125 124.9140625 C-3.09131105 140.55901568 -23.64791471 152.83903318 -44.84814453 154.18017578 C-58.42398073 154.76048194 -71.10103827 154.53166738 -84 150 C-85.07121094 149.62617187 -86.14242187 149.25234375 -87.24609375 148.8671875 C-98.865978 144.3968626 -108.057972 137.5418684 -117 129 C-117.61488281 128.45988281 -118.22976563 127.91976562 -118.86328125 127.36328125 C-132.40252756 115.0067737 -140.98690139 94.52814833 -142.1640625 76.48535156 C-143.25934318 50.99269384 -137.60595064 29.25792173 -120.5625 9.75 C-87.83396391 -25.15300442 -37.79721149 -28.59623054 0 0 Z "
          fill="#FFFFFF" transform="translate(399,683)"/>
</svg>
